<svg width="488" height="430" viewBox="0 0 488 430" fill="none" xmlns="http://www.w3.org/2000/svg">
<path d="M376.203 257.21C376.203 257.16 376.215 257.136 376.215 257.136C366.182 253.803 350.787 254.935 348.5 256.3C346.004 257.8 344.036 260.05 342.29 262.399C337.421 268.916 333.302 278.039 330.879 287.852L221.75 297.996C217.742 289.315 211.68 281.531 205.593 276.834C203.798 275.457 201.867 274.178 199.691 273.576C199.224 273.453 198.191 273.49 196.838 273.662C192.879 262.202 187.272 251.135 180.263 250.434C165.47 248.959 139.759 253.89 132.726 268.215C125.704 282.527 123.503 318.26 123.503 318.26L118.56 323.191C114.613 315.74 109.277 309.198 103.903 305.054C102.108 303.677 100.177 302.398 98.0011 301.796C96.7714 301.464 91.8775 302.214 86.7008 303.898C86.4918 303.702 86.2951 303.517 86.0737 303.333C81.1921 299.201 71.0723 296.951 65.4407 307.464C59.809 317.965 66.5719 337.848 69.9411 342.349C72.6462 345.964 75.1178 347.636 75.9785 348.165C79.9502 358.026 86.9959 370.544 97.9642 371.122C105.514 371.515 112.929 368.638 118.167 363.178C125.262 355.764 126.024 345.435 123.344 335.303L124.487 333.631C124.487 333.631 127.032 337.258 136.845 335.782C140.644 335.217 143.03 333.938 144.542 332.585C149.129 344.255 156.506 355.924 168.262 357.694C178.431 359.231 188.87 356.317 196.666 349.603C199.002 347.587 200.933 345.337 202.507 342.902C209.048 342.533 215.282 339.729 219.844 334.959C224.148 330.458 226.128 324.863 226.411 318.912L240.932 317.215C240.932 317.215 254.003 323.658 269.976 322.65C285.937 321.642 295.528 311.559 295.528 311.559L328.617 308.731C329.182 321.556 333.781 333.311 344.59 339.803C352.951 344.82 363.145 345.865 372.379 342.767C387.639 337.639 391.266 314.977 392.237 301.193C393.811 279.146 386.753 260.394 376.203 257.21Z" fill="#263238" stroke="#263238" stroke-width="0.75" stroke-miterlimit="10" stroke-linecap="round" stroke-linejoin="round"/>
<path d="M174.176 350.636C172.885 352.247 171.324 353.575 169.442 354.485" stroke="white" stroke-width="0.5" stroke-miterlimit="10" stroke-linecap="round" stroke-linejoin="round"/>
<path d="M180.14 321.494C180.14 321.494 181.603 337.454 176.156 347.623" stroke="white" stroke-width="0.5" stroke-miterlimit="10" stroke-linecap="round" stroke-linejoin="round"/>
<path d="M184.456 339.151C183.054 345.299 180.287 351.263 174.939 353.87" stroke="white" stroke-width="0.5" stroke-miterlimit="10" stroke-linecap="round" stroke-linejoin="round"/>
<path d="M191.133 320.277C191.133 320.277 193.58 346.861 180.435 353.267" stroke="white" stroke-width="0.5" stroke-miterlimit="10" stroke-linecap="round" stroke-linejoin="round"/>
<path d="M196.641 319.662C196.641 319.662 199.088 346.246 185.944 352.653" stroke="white" stroke-width="0.5" stroke-miterlimit="10" stroke-linecap="round" stroke-linejoin="round"/>
<path d="M362.53 338.291C361.042 340.111 359.333 341.623 357.365 342.656" stroke="white" stroke-width="0.5" stroke-miterlimit="10" stroke-linecap="round" stroke-linejoin="round"/>
<path d="M372.416 305.103C372.416 305.103 371.629 323.289 364.891 334.86" stroke="white" stroke-width="0.5" stroke-miterlimit="10" stroke-linecap="round" stroke-linejoin="round"/>
<path d="M374.174 325.245C371.949 332.241 368.42 339.029 362.825 341.98" stroke="white" stroke-width="0.5" stroke-miterlimit="10" stroke-linecap="round" stroke-linejoin="round"/>
<path d="M383.335 303.751C383.335 303.751 382.019 334.049 368.284 341.303" stroke="white" stroke-width="0.5" stroke-miterlimit="10" stroke-linecap="round" stroke-linejoin="round"/>
<path d="M388.795 303.087C388.795 303.087 387.479 333.385 373.744 340.639" stroke="white" stroke-width="0.5" stroke-miterlimit="10" stroke-linecap="round" stroke-linejoin="round"/>
<path d="M101.518 367.076C100.485 368.638 99.157 370.003 97.4847 371.06" stroke="white" stroke-width="0.5" stroke-miterlimit="10" stroke-linecap="round" stroke-linejoin="round"/>
<path d="M103.461 341.218C103.461 341.218 106.928 354.694 103.018 364.199" stroke="white" stroke-width="0.5" stroke-miterlimit="10" stroke-linecap="round" stroke-linejoin="round"/>
<path d="M109.892 355.739C109.351 361.211 107.469 366.732 102.674 369.745" stroke="white" stroke-width="0.5" stroke-miterlimit="10" stroke-linecap="round" stroke-linejoin="round"/>
<path d="M113.839 338.586C113.839 338.586 119.618 361.027 107.863 368.429" stroke="white" stroke-width="0.5" stroke-miterlimit="10" stroke-linecap="round" stroke-linejoin="round"/>
<path d="M119.028 337.258C119.028 337.258 124.807 359.699 113.052 367.101" stroke="white" stroke-width="0.5" stroke-miterlimit="10" stroke-linecap="round" stroke-linejoin="round"/>
<path d="M161.413 312.383C164.339 329.13 162.507 343.431 157.343 344.328C152.166 345.226 145.612 332.389 142.686 315.653C139.759 298.906 141.591 284.606 146.756 283.708C151.92 282.798 158.486 295.635 161.413 312.383Z" fill="#FFF500" stroke="#263238" stroke-miterlimit="10" stroke-linecap="round" stroke-linejoin="round"/>
<path d="M158.806 312.739C159.617 319.158 158.867 324.543 157.109 324.765C155.363 324.986 153.285 319.969 152.461 313.551C151.649 307.132 152.399 301.746 154.158 301.525C155.916 301.291 157.994 306.32 158.806 312.739Z" fill="#FFF500" stroke="#263238" stroke-miterlimit="10" stroke-linecap="round" stroke-linejoin="round"/>
<path d="M146.472 297.394C146.694 294.848 147.063 292.672 147.493 291" stroke="#263238" stroke-width="0.75" stroke-miterlimit="10" stroke-linecap="round" stroke-linejoin="round"/>
<path d="M154.625 338.315C152.19 333.385 148.944 325.675 147.395 316.76C146.374 310.907 146.104 305.374 146.263 300.714" stroke="#263238" stroke-width="0.75" stroke-miterlimit="10" stroke-linecap="round" stroke-linejoin="round"/>
<path d="M89.0233 362.134C92.7406 361.104 93.0509 350.512 89.7165 338.477C86.382 326.442 80.6654 317.52 76.9481 318.55C73.2309 319.58 72.9205 330.171 76.255 342.207C79.5895 354.242 85.3061 363.164 89.0233 362.134Z" fill="#FFF500" stroke="#263238" stroke-miterlimit="10" stroke-linecap="round" stroke-linejoin="round"/>
<path d="M88.5205 338.942C89.6887 343.517 89.6272 347.476 88.373 347.796C87.131 348.115 85.1636 344.66 84.0078 340.098C82.8397 335.524 82.9011 331.565 84.1554 331.245C85.3973 330.925 87.3524 334.368 88.5205 338.942Z" stroke="#263238" stroke-width="0.75" stroke-miterlimit="10" stroke-linecap="round" stroke-linejoin="round"/>
<path d="M78.2163 328.946C78.1548 327.077 78.2163 325.478 78.3762 324.224" stroke="#263238" stroke-width="0.75" stroke-miterlimit="10" stroke-linecap="round" stroke-linejoin="round"/>
<path d="M87.7952 357.829C85.5942 354.485 82.5447 349.185 80.6265 342.877C79.36 338.733 78.6591 334.749 78.364 331.368" stroke="#263238" stroke-width="0.75" stroke-miterlimit="10" stroke-linecap="round" stroke-linejoin="round"/>
<path d="M352.631 133.018C339.671 106.273 334.076 103.949 325.456 103.556C316.837 103.162 296.474 100.58 273.812 104.22C273.812 104.22 210.548 103.113 161.622 132.747C110.518 163.697 85.6678 190.884 82.1756 204.975C78.6958 219.067 66.8177 255.783 61.1983 276.834C55.5666 297.885 51.7179 316.428 58.9112 333.471C63.2518 343.775 67.8751 346.874 73.8142 346.824C73.015 345.398 72.2034 343.738 71.4165 341.771C65.5266 327.15 66.2397 306.235 72.9658 304.833C79.6918 303.431 83.7373 317.486 87.795 332.758C89.123 337.75 90.2051 340.762 91.0658 342.582C101.136 338.783 117.269 330.274 138.714 321.457C137.361 312.149 136.07 297.578 138.578 280.978C141.751 259.989 155.166 255.353 161.019 268.129C165.839 278.666 167.647 302.214 168.126 310.157C176.746 307.194 183.939 305.214 188.378 304.968C188.378 304.968 261.774 288.393 315.853 287.065C369.944 285.737 396.971 284.446 396.971 284.446C396.971 284.446 365.591 159.762 352.631 133.018Z" fill="white"/>
<mask id="mask0_1_611" style="mask-type:luminance" maskUnits="userSpaceOnUse" x="54" y="102" width="343" height="245">
<path d="M352.631 133.018C339.671 106.273 334.076 103.949 325.456 103.556C316.837 103.162 296.474 100.58 273.812 104.22C273.812 104.22 210.548 103.113 161.622 132.747C110.518 163.697 85.6678 190.884 82.1756 204.975C78.6958 219.067 66.8177 255.783 61.1983 276.834C55.5666 297.885 51.7179 316.428 58.9112 333.471C63.2518 343.775 67.8751 346.874 73.8142 346.824C73.015 345.398 72.2034 343.738 71.4165 341.771C65.5266 327.15 66.2397 306.235 72.9658 304.833C79.6918 303.431 83.7373 317.486 87.795 332.758C89.123 337.75 90.2051 340.762 91.0658 342.582C101.136 338.783 117.269 330.274 138.714 321.457C137.361 312.149 136.07 297.578 138.578 280.978C141.751 259.989 155.166 255.353 161.019 268.129C165.839 278.666 167.647 302.214 168.126 310.157C176.746 307.194 183.939 305.214 188.378 304.968C188.378 304.968 261.774 288.393 315.853 287.065C369.944 285.737 396.971 284.446 396.971 284.446C396.971 284.446 365.591 159.762 352.631 133.018Z" fill="white"/>
</mask>
<g mask="url(#mask0_1_611)">
<path d="M179.697 262.104C179.697 262.104 172.258 272.285 163.208 274.461C166.405 286.192 167.721 303.554 168.114 310.157C175.799 307.513 182.329 305.669 186.804 305.116C187.456 301.279 187.85 298.832 187.85 298.832L179.697 262.104Z" fill="#FFF500"/>
</g>
<mask id="mask1_1_611" style="mask-type:luminance" maskUnits="userSpaceOnUse" x="54" y="102" width="343" height="245">
<path d="M352.631 133.018C339.671 106.273 334.076 103.949 325.456 103.556C316.837 103.162 296.474 100.58 273.812 104.22C273.812 104.22 210.548 103.113 161.622 132.747C110.518 163.697 85.6678 190.884 82.1756 204.975C78.6958 219.067 66.8177 255.783 61.1983 276.834C55.5666 297.885 51.7179 316.428 58.9112 333.471C63.2518 343.775 67.8751 346.874 73.8142 346.824C73.015 345.398 72.2034 343.738 71.4165 341.771C65.5266 327.15 66.2397 306.235 72.9658 304.833C79.6918 303.431 83.7373 317.486 87.795 332.758C89.123 337.75 90.2051 340.762 91.0658 342.582C101.136 338.783 117.269 330.274 138.714 321.457C137.361 312.149 136.07 297.578 138.578 280.978C141.751 259.989 155.166 255.353 161.019 268.129C165.839 278.666 167.647 302.214 168.126 310.157C176.746 307.194 183.939 305.214 188.378 304.968C188.378 304.968 261.774 288.393 315.853 287.065C369.944 285.737 396.971 284.446 396.971 284.446C396.971 284.446 365.591 159.762 352.631 133.018Z" fill="white"/>
</mask>
<g mask="url(#mask1_1_611)">
<path opacity="0.2" d="M88.1148 333.913C91.5331 334.258 93.8079 335.721 100.755 333.987C113.002 330.926 104.211 307.206 124.622 297.504C129.516 295.18 133.672 294.16 137.312 293.938C137.509 289.807 137.902 285.466 138.578 280.966C139.329 275.998 140.657 271.953 142.317 268.83C136.746 267.108 135.738 265.485 126.245 269.998C105.846 279.687 108.895 304.685 96.6606 307.747C86.9097 310.182 86.3687 306.284 78.9418 308.104C82.4093 312.998 85.1022 322.601 87.8073 332.745C87.9057 333.163 88.0041 333.532 88.1148 333.913Z" fill="#FFF500"/>
</g>
<mask id="mask2_1_611" style="mask-type:luminance" maskUnits="userSpaceOnUse" x="54" y="102" width="343" height="245">
<path d="M352.631 133.018C339.671 106.273 334.076 103.949 325.456 103.556C316.837 103.162 296.474 100.58 273.812 104.22C273.812 104.22 210.548 103.113 161.622 132.747C110.518 163.697 85.6678 190.884 82.1756 204.975C78.6958 219.067 66.8177 255.783 61.1983 276.834C55.5666 297.885 51.7179 316.428 58.9112 333.471C63.2518 343.775 67.8751 346.874 73.8142 346.824C73.015 345.398 72.2034 343.738 71.4165 341.771C65.5266 327.15 66.2397 306.235 72.9658 304.833C79.6918 303.431 83.7373 317.486 87.795 332.758C89.123 337.75 90.2051 340.762 91.0658 342.582C101.136 338.783 117.269 330.274 138.714 321.457C137.361 312.149 136.07 297.578 138.578 280.978C141.751 259.989 155.166 255.353 161.019 268.129C165.839 278.666 167.647 302.214 168.126 310.157C176.746 307.194 183.939 305.214 188.378 304.968C188.378 304.968 261.774 288.393 315.853 287.065C369.944 285.737 396.971 284.446 396.971 284.446C396.971 284.446 365.591 159.762 352.631 133.018Z" fill="white"/>
</mask>
<g mask="url(#mask2_1_611)">
<path opacity="0.2" d="M68.0349 312.899C62.3171 316.846 58.9111 322.712 56.9314 327.716C57.4724 329.659 58.1118 331.577 58.9111 333.471C63.2517 343.775 67.875 346.874 73.8141 346.824C73.0149 345.398 72.2033 343.738 71.4164 341.771C67.666 332.487 66.5962 320.646 68.0349 312.899Z" fill="#FFF500"/>
</g>
<mask id="mask3_1_611" style="mask-type:luminance" maskUnits="userSpaceOnUse" x="54" y="102" width="343" height="245">
<path d="M352.631 133.018C339.671 106.273 334.076 103.949 325.456 103.556C316.837 103.162 296.474 100.58 273.812 104.22C273.812 104.22 210.548 103.113 161.622 132.747C110.518 163.697 85.6678 190.884 82.1756 204.975C78.6958 219.067 66.8177 255.783 61.1983 276.834C55.5666 297.885 51.7179 316.428 58.9112 333.471C63.2518 343.775 67.8751 346.874 73.8142 346.824C73.015 345.398 72.2034 343.738 71.4165 341.771C65.5266 327.15 66.2397 306.235 72.9658 304.833C79.6918 303.431 83.7373 317.486 87.795 332.758C89.123 337.75 90.2051 340.762 91.0658 342.582C101.136 338.783 117.269 330.274 138.714 321.457C137.361 312.149 136.07 297.578 138.578 280.978C141.751 259.989 155.166 255.353 161.019 268.129C165.839 278.666 167.647 302.214 168.126 310.157C176.746 307.194 183.939 305.214 188.378 304.968C188.378 304.968 261.774 288.393 315.853 287.065C369.944 285.737 396.971 284.446 396.971 284.446C396.971 284.446 365.591 159.762 352.631 133.018Z" fill="white"/>
</mask>
<g mask="url(#mask3_1_611)">
<path opacity="0.2" d="M325.456 103.556C324.792 103.519 324.03 103.482 323.231 103.421C233.554 126.366 197.071 234.449 184.517 286.536C185.193 291.713 185.931 296.804 186.73 301.747C188.255 301.452 187.198 305.042 188.366 304.968C188.366 304.968 261.762 288.393 315.841 287.065C369.932 285.737 396.959 284.446 396.959 284.446C396.959 284.446 365.591 159.762 352.631 133.018C339.671 106.274 334.076 103.95 325.456 103.556Z" fill="#FFF500"/>
</g>
<path d="M352.631 133.018C339.671 106.273 334.076 103.949 325.456 103.556C316.837 103.162 296.474 100.58 273.812 104.22C273.812 104.22 210.548 103.113 161.622 132.747C110.518 163.697 85.6678 190.884 82.1756 204.975C78.6958 219.067 66.8177 255.783 61.1983 276.834C55.5666 297.885 51.7179 316.428 58.9112 333.471C63.2518 343.775 67.8751 346.874 73.8142 346.824C73.015 345.398 72.2034 343.738 71.4165 341.771C65.5266 327.15 66.2397 306.235 72.9658 304.833C79.6918 303.431 83.7373 317.486 87.795 332.758C89.123 337.75 90.2051 340.762 91.0658 342.582C101.136 338.783 117.269 330.274 138.714 321.457C137.361 312.149 136.07 297.578 138.578 280.978C141.751 259.989 155.166 255.353 161.019 268.129C165.839 278.666 167.647 302.214 168.126 310.157C176.746 307.194 183.939 305.214 188.378 304.968C188.378 304.968 261.774 288.393 315.853 287.065C369.944 285.737 396.971 284.446 396.971 284.446C396.971 284.446 365.591 159.762 352.631 133.018Z" stroke="#263238" stroke-miterlimit="10" stroke-linecap="round" stroke-linejoin="round"/>
<path opacity="0.2" d="M84.2046 268.03C84.2046 268.03 86.5286 270.354 90.4019 268.805C94.2752 267.256 94.6687 261.44 94.6687 261.44L100.485 261.046L101.653 242.835L88.8649 247.877C88.8526 247.877 85.3727 265.706 84.2046 268.03Z" fill="#FFF500"/>
<path d="M67.4325 321.285C65.1823 322.515 60.5097 325.22 57.0668 328.183C57.5832 329.966 58.1734 331.725 58.9112 333.471C63.2518 343.775 67.8752 346.874 73.8142 346.824C73.015 345.398 72.2034 343.738 71.4165 341.771C68.8589 335.426 67.5432 327.888 67.4325 321.285Z" fill="#263238" stroke="#263238" stroke-width="0.75" stroke-miterlimit="10" stroke-linecap="round" stroke-linejoin="round"/>
<path d="M87.0205 311.128C86.3688 311.128 85.7294 310.784 85.3974 310.169C84.9056 309.272 85.2376 308.153 86.1352 307.673C86.4303 307.513 110.359 292.684 130.18 282.146C131.078 281.667 132.197 282.011 132.676 282.909C133.156 283.806 132.812 284.925 131.914 285.405C112.105 295.93 88.201 310.747 87.8936 310.907C87.6108 311.055 87.3156 311.128 87.0205 311.128Z" fill="#263238" stroke="#263238" stroke-miterlimit="10"/>
<path d="M118.302 187.871L117.453 208.984C117.269 211.861 118.941 213.25 121.105 212.021L155.092 189.888C157.416 188.56 159.236 184.846 158.929 182.067L158.72 158.52C158.486 156.38 157.023 155.507 155.24 156.442C148.858 159.75 136.5 170.939 121.745 181.354C119.913 182.645 118.449 185.412 118.302 187.871Z" fill="#FFF500" stroke="#263238" stroke-miterlimit="10" stroke-linecap="round" stroke-linejoin="round"/>
<path d="M141.271 181.92L157.883 185.977" stroke="#263238" stroke-miterlimit="10" stroke-linecap="round" stroke-linejoin="round"/>
<path d="M118.548 212.107L128.803 189.457" stroke="#263238" stroke-miterlimit="10" stroke-linecap="round" stroke-linejoin="round"/>
<path d="M118.499 187.182L133.586 189.064C135.148 189.297 137.091 188.006 138.554 185.756L158.228 157.585" stroke="#263238" stroke-miterlimit="10" stroke-linecap="round" stroke-linejoin="round"/>
<path d="M202.666 148.646L206.158 201.459C206.539 207.902 212.257 212.71 218.664 211.972L336.117 196.737C343.003 195.95 347.528 189.175 345.647 182.51L330.83 130.079C329.379 124.939 324.522 121.533 319.197 121.927C300.163 123.316 254.507 127.423 211.421 137.026C206.048 138.219 202.346 143.15 202.666 148.646Z" fill="#FFF500" stroke="#263238" stroke-miterlimit="10" stroke-linecap="round" stroke-linejoin="round"/>
<path d="M289.969 165.037L343.593 190.441" stroke="#263238" stroke-miterlimit="10" stroke-linecap="round" stroke-linejoin="round"/>
<path d="M210.609 209.709L255.896 169.181" stroke="#263238" stroke-miterlimit="10" stroke-linecap="round" stroke-linejoin="round"/>
<path d="M203.06 147.257L268.058 173.989C273.038 176.03 278.743 174.948 282.629 171.222L328.948 127.472" stroke="#263238" stroke-miterlimit="10" stroke-linecap="round" stroke-linejoin="round"/>
<path d="M332.872 204.237C343.911 203.964 352.642 194.948 352.374 184.1C352.106 173.251 342.94 164.677 331.901 164.95C320.862 165.223 312.131 174.239 312.399 185.087C312.667 195.936 321.833 204.51 332.872 204.237Z" fill="#263238" stroke="#263238" stroke-width="0.75" stroke-miterlimit="10" stroke-linecap="round" stroke-linejoin="round"/>
<path d="M330.203 194.007C330.178 194.007 330.166 194.007 330.142 194.007C329.355 194.007 328.617 193.626 328.15 192.986L320.292 182.141C319.493 181.047 319.739 179.51 320.846 178.71C321.94 177.911 323.489 178.157 324.276 179.264L330.142 187.355L344.159 167.988C344.958 166.894 346.496 166.636 347.59 167.435C348.697 168.234 348.942 169.771 348.143 170.865L332.134 192.986C331.679 193.613 330.965 193.995 330.203 194.007Z" fill="white" stroke="#263238" stroke-miterlimit="10" stroke-linecap="round" stroke-linejoin="round"/>
<path d="M255.934 247.004C255.934 247.004 297.753 238.986 326.403 239.552L328.125 246.426C328.125 246.426 267.972 249.291 256.512 255.021L255.934 247.004Z" fill="#263238" stroke="#263238" stroke-width="0.75" stroke-miterlimit="10" stroke-linecap="round" stroke-linejoin="round"/>
<path d="M256.499 255.021L257.717 261.906C258 263.493 259.475 264.575 261.074 264.341C271.562 262.829 308.377 257.787 327.436 258.242C329.453 258.291 330.953 256.385 330.4 254.443L328.113 246.426" stroke="#263238" stroke-miterlimit="10" stroke-linecap="round" stroke-linejoin="round"/>
<path d="M103.94 242.86L103.707 214.455L105.108 185.252C105.17 183.973 103.621 183.309 102.735 184.219C97.4601 189.629 88.3978 197.819 85.7173 204.532C82.2374 213.226 78.1305 256.029 78.1305 256.029L103.94 242.86Z" fill="#263238" stroke="#263238" stroke-width="0.75" stroke-miterlimit="10" stroke-linecap="round" stroke-linejoin="round"/>
<path d="M71.1954 265.989H67.0761C64.9735 265.989 63.2766 264.292 63.2766 262.19V240.966C63.2766 238.864 64.9735 237.167 67.0761 237.167H71.1954C73.298 237.167 74.9949 238.864 74.9949 240.966V262.177C74.9949 264.28 73.298 265.989 71.1954 265.989Z" fill="#263238" stroke="#263238" stroke-width="0.75" stroke-miterlimit="10" stroke-linecap="round" stroke-linejoin="round"/>
<path d="M73.7899 217.333C73.7899 217.333 77.0976 217.96 79.4708 219.067C81.8439 220.186 83.5408 222.018 83.5408 222.018L89.6766 213.878C89.6766 213.878 80.6635 210.103 78.9666 207.803C77.2697 205.492 77.2697 205.492 77.2697 205.492L73.7899 217.333Z" fill="white"/>
<mask id="mask4_1_611" style="mask-type:luminance" maskUnits="userSpaceOnUse" x="73" y="205" width="17" height="18">
<path d="M73.7899 217.333C73.7899 217.333 77.0976 217.96 79.4708 219.067C81.8439 220.186 83.5408 222.018 83.5408 222.018L89.6766 213.878C89.6766 213.878 80.6635 210.103 78.9666 207.803C77.2697 205.492 77.2697 205.492 77.2697 205.492L73.7899 217.333Z" fill="white"/>
</mask>
<g mask="url(#mask4_1_611)">
<path opacity="0.5" d="M78.9545 207.816C77.9216 206.414 77.5281 205.873 77.3683 205.652L77.1838 205.775L73.8024 217.333C73.8024 217.333 74.4541 217.456 75.3763 217.69L84.1681 211.308C81.9302 210.164 79.7169 208.836 78.9545 207.816Z" fill="#FFF500"/>
</g>
<path d="M73.7899 217.333C73.7899 217.333 77.0976 217.96 79.4708 219.067C81.8439 220.186 83.5408 222.018 83.5408 222.018L89.6766 213.878C89.6766 213.878 80.6635 210.103 78.9666 207.803C77.2697 205.492 77.2697 205.492 77.2697 205.492L73.7899 217.333Z" stroke="#263238" stroke-width="0.75" stroke-miterlimit="10" stroke-linecap="round" stroke-linejoin="round"/>
<path d="M86.7747 210.435L79.2617 220.014L80.2823 223.272L91.7301 211.394L86.7747 210.435Z" fill="#FFF500" stroke="#263238" stroke-miterlimit="10" stroke-linecap="round" stroke-linejoin="round"/>
<path d="M74.7491 183.371C69.6707 179.424 56.44 181.944 53.8332 191.265C52.247 196.946 53.1323 205.615 53.1323 205.615L68.2198 202.418C68.5764 202.983 68.9698 203.586 69.4248 204.262C71.8595 207.963 77.2083 205.479 78.5855 204.274C79.3356 203.61 79.2864 201.704 79.0896 200.106L79.6921 199.983C79.6798 199.983 79.8151 187.318 74.7491 183.371Z" fill="#263238" stroke="#263238" stroke-width="0.75" stroke-miterlimit="10" stroke-linecap="round" stroke-linejoin="round"/>
<path d="M69.0681 201.286C69.0681 201.286 59.1697 199.885 49.3942 203.18C39.6187 206.475 38.0448 209.328 45.0782 209.156C52.1116 208.984 69.0681 201.286 69.0681 201.286Z" fill="#263238" stroke="#263238" stroke-width="0.75" stroke-miterlimit="10" stroke-linecap="round" stroke-linejoin="round"/>
<path d="M56.9686 197.708C58.1162 197.708 59.0466 196.436 59.0466 194.868C59.0466 193.299 58.1162 192.027 56.9686 192.027C55.8209 192.027 54.8905 193.299 54.8905 194.868C54.8905 196.436 55.8209 197.708 56.9686 197.708Z" fill="#FFF500"/>
<path d="M103.707 214.456C103.707 214.456 90.2423 211.025 86.0861 214.185C81.9423 217.345 80.8971 222.534 82.2251 228.842C83.5531 235.15 86.787 251.738 86.787 251.738L103.94 242.86L103.707 214.456Z" fill="#263238" stroke="#263238" stroke-width="0.75" stroke-miterlimit="10" stroke-linecap="round" stroke-linejoin="round"/>
<path d="M82.3359 249.094C82.3359 249.094 81.6227 255.464 80.762 256.361C79.9135 257.259 57.5344 238.446 56.1818 236.736C54.8292 235.015 55.7638 228.645 56.1572 226.666C56.5507 224.686 55.8621 223.604 53.7103 224.969C51.5584 226.334 52.1364 232.015 52.1364 232.015C52.1364 232.015 45.5333 230.428 44.2053 230.244C42.8896 230.06 41.6969 231.695 41.9428 233.011C42.1887 234.314 43.8733 234.412 43.8733 234.412C43.8733 234.412 43.0741 237.72 44.2299 240.093C45.3857 242.479 46.7383 243.979 49.1607 244.569C51.583 245.172 56.8335 245.036 56.8335 245.036C56.8335 245.036 68.269 255.919 71.6505 260.001C75.0319 264.083 81.9547 269.604 85.4345 268.645C88.9144 267.686 92.2466 250.275 92.2466 250.275L82.3359 249.094Z" fill="white"/>
<mask id="mask5_1_611" style="mask-type:luminance" maskUnits="userSpaceOnUse" x="41" y="224" width="52" height="45">
<path d="M82.3359 249.094C82.3359 249.094 81.6227 255.464 80.762 256.361C79.9135 257.259 57.5344 238.446 56.1818 236.736C54.8292 235.015 55.7638 228.645 56.1572 226.666C56.5507 224.686 55.8621 223.604 53.7103 224.969C51.5584 226.334 52.1364 232.015 52.1364 232.015C52.1364 232.015 45.5333 230.428 44.2053 230.244C42.8896 230.06 41.6969 231.695 41.9428 233.011C42.1887 234.314 43.8733 234.412 43.8733 234.412C43.8733 234.412 43.0741 237.72 44.2299 240.093C45.3857 242.479 46.7383 243.979 49.1607 244.569C51.583 245.172 56.8335 245.036 56.8335 245.036C56.8335 245.036 68.269 255.919 71.6505 260.001C75.0319 264.083 81.9547 269.604 85.4345 268.645C88.9144 267.686 92.2466 250.275 92.2466 250.275L82.3359 249.094Z" fill="white"/>
</mask>
<g mask="url(#mask5_1_611)">
<path opacity="0.5" d="M80.7621 256.361L87.3036 258.538C87.3036 258.538 88.1029 263.345 83.2951 264.944C80.4055 265.903 75.2165 262.632 71.5276 259.853C71.5645 259.89 71.6137 259.952 71.6505 259.989C75.032 264.071 81.9548 269.592 85.4346 268.633C88.9144 267.674 92.2467 250.262 92.2467 250.262L82.336 249.082C82.336 249.094 81.6105 255.464 80.7621 256.361Z" fill="#FFF500"/>
</g>
<path d="M82.3359 249.094C82.3359 249.094 81.6227 255.464 80.762 256.361C79.9135 257.259 57.5344 238.446 56.1818 236.736C54.8292 235.015 55.7638 228.645 56.1572 226.666C56.5507 224.686 55.8621 223.604 53.7103 224.969C51.5584 226.334 52.1364 232.015 52.1364 232.015C52.1364 232.015 45.5333 230.428 44.2053 230.244C42.8896 230.06 41.6969 231.695 41.9428 233.011C42.1887 234.314 43.8733 234.412 43.8733 234.412C43.8733 234.412 43.0741 237.72 44.2299 240.093C45.3857 242.479 46.7383 243.979 49.1607 244.569C51.583 245.172 56.8335 245.036 56.8335 245.036C56.8335 245.036 68.269 255.919 71.6505 260.001C75.0319 264.083 81.9547 269.604 85.4345 268.645C88.9144 267.686 92.2466 250.275 92.2466 250.275L82.3359 249.094Z" stroke="#263238" stroke-width="0.75" stroke-miterlimit="10" stroke-linecap="round" stroke-linejoin="round"/>
<path d="M59.9691 240.142L56.8213 245.036L58.4321 246.131L61.6537 241.52L59.9691 240.142Z" fill="#263238" stroke="#263238" stroke-miterlimit="10"/>
<path d="M58.887 244.753C59.5661 244.753 60.1166 244.203 60.1166 243.524C60.1166 242.845 59.5661 242.294 58.887 242.294C58.2079 242.294 57.6573 242.845 57.6573 243.524C57.6573 244.203 58.2079 244.753 58.887 244.753Z" fill="white" stroke="#263238" stroke-width="0.75" stroke-miterlimit="10" stroke-linecap="round" stroke-linejoin="round"/>
<path d="M55.8743 207.189C55.8743 207.189 56.6243 209.045 57.8785 212.304C59.1328 215.562 65.8711 222.436 69.1788 222.829C72.4865 223.223 76.4212 211.246 77.0484 208.787C77.2574 207.963 77.4664 206.66 77.4664 206.66C77.4664 206.66 81.6103 204.717 80.6511 202.356C79.692 199.995 77.7492 198.901 76.827 199.639C75.9048 200.364 75.745 203.426 74.3432 203.463C72.9414 203.5 72.2159 203.045 71.0109 201.434C69.769 199.799 57.1777 203.168 55.8743 207.189Z" fill="white"/>
<mask id="mask6_1_611" style="mask-type:luminance" maskUnits="userSpaceOnUse" x="55" y="199" width="26" height="24">
<path d="M55.8743 207.189C55.8743 207.189 56.6243 209.045 57.8785 212.304C59.1328 215.562 65.8711 222.436 69.1788 222.829C72.4865 223.223 76.4212 211.246 77.0484 208.787C77.2574 207.963 77.4664 206.66 77.4664 206.66C77.4664 206.66 81.6103 204.717 80.6511 202.356C79.692 199.995 77.7492 198.901 76.827 199.639C75.9048 200.364 75.745 203.426 74.3432 203.463C72.9414 203.5 72.2159 203.045 71.0109 201.434C69.769 199.799 57.1777 203.168 55.8743 207.189Z" fill="white"/>
</mask>
<g mask="url(#mask6_1_611)">
<path opacity="0.5" d="M70.9863 201.41C69.769 199.799 57.1776 203.156 55.8619 207.189C55.8619 207.189 56.1202 207.84 56.5874 209.009C58.9852 207.57 65.1456 204.152 72.0807 202.651C71.7364 202.356 71.3921 201.951 70.9863 201.41Z" fill="#FFF500"/>
</g>
<mask id="mask7_1_611" style="mask-type:luminance" maskUnits="userSpaceOnUse" x="55" y="199" width="26" height="24">
<path d="M55.8743 207.189C55.8743 207.189 56.6243 209.045 57.8785 212.304C59.1328 215.562 65.8711 222.436 69.1788 222.829C72.4865 223.223 76.4212 211.246 77.0484 208.787C77.2574 207.963 77.4664 206.66 77.4664 206.66C77.4664 206.66 81.6103 204.717 80.6511 202.356C79.692 199.995 77.7492 198.901 76.827 199.639C75.9048 200.364 75.745 203.426 74.3432 203.463C72.9414 203.5 72.2159 203.045 71.0109 201.434C69.769 199.799 57.1777 203.168 55.8743 207.189Z" fill="white"/>
</mask>
<g mask="url(#mask7_1_611)">
<path opacity="0.5" d="M80.479 202.012C79.4707 199.897 77.6877 198.938 76.8147 199.627C76.2983 200.032 76.0278 201.151 75.6343 202.086C77.2451 201.914 78.8682 201.877 80.479 202.012Z" fill="#FFF500"/>
</g>
<path d="M55.8743 207.189C55.8743 207.189 56.6243 209.045 57.8785 212.304C59.1328 215.562 65.8711 222.436 69.1788 222.829C72.4865 223.223 76.4212 211.246 77.0484 208.787C77.2574 207.963 77.4664 206.66 77.4664 206.66C77.4664 206.66 81.6103 204.717 80.6511 202.356C79.692 199.995 77.7492 198.901 76.827 199.639C75.9048 200.364 75.745 203.426 74.3432 203.463C72.9414 203.5 72.2159 203.045 71.0109 201.434C69.769 199.799 57.1777 203.168 55.8743 207.189Z" stroke="#263238" stroke-width="0.75" stroke-miterlimit="10" stroke-linecap="round" stroke-linejoin="round"/>
<path d="M60.3377 208.099C60.559 208.849 60.4852 209.537 60.1901 209.623C59.8827 209.709 59.4647 209.168 59.2433 208.418C59.022 207.668 59.0958 206.98 59.3909 206.894C59.6983 206.807 60.1163 207.348 60.3377 208.099Z" fill="#263238" stroke="#263238" stroke-miterlimit="10"/>
<path d="M58.0876 205.984C59.8091 205.492 60.4854 206.795 60.7559 207.988L61.0756 209.402L62.1454 214.874L63.7685 214.185" stroke="#263238" stroke-width="0.5" stroke-miterlimit="10" stroke-linecap="round" stroke-linejoin="round"/>
<path d="M65.0594 206.402C65.0594 206.402 66.0554 205.123 68.0474 205.258" stroke="#263238" stroke-width="0.5" stroke-miterlimit="10" stroke-linecap="round" stroke-linejoin="round"/>
<path d="M66.4859 202.996C66.4859 202.996 64.0636 203.426 63.6455 205.836" stroke="#263238" stroke-width="0.5" stroke-miterlimit="10" stroke-linecap="round" stroke-linejoin="round"/>
<path d="M65.2072 215.944C65.2072 215.944 68.7608 215.23 69.0559 212.673" stroke="#263238" stroke-width="0.5" stroke-miterlimit="10" stroke-linecap="round" stroke-linejoin="round"/>
<path d="M95.4681 258.316L77.4664 253.287C77.4664 253.287 79.0526 222.547 81.8316 217.358C86.1599 209.279 96.0952 212.919 97.9519 223.063C99.698 232.617 95.4681 258.316 95.4681 258.316Z" fill="#FFF500" stroke="#263238" stroke-miterlimit="10" stroke-linecap="round" stroke-linejoin="round"/>
<path d="M77.8969 249.844C77.8969 249.844 87.7953 252.107 93.7221 254.086" stroke="#263238" stroke-width="0.5" stroke-miterlimit="10" stroke-linecap="round" stroke-linejoin="round"/>
<path d="M93.4762 211.984C93.4762 211.984 99.3292 212.439 103.153 215.587" stroke="#FFF500" stroke-width="0.5" stroke-miterlimit="10" stroke-linecap="round" stroke-linejoin="round"/>
<path d="M196.617 290.618C196.617 290.618 170.401 299.877 168.003 302.398C165.606 304.919 165.852 314.756 171.495 319.527C177.152 324.31 217.471 313.477 246.293 310.305C275.116 307.132 338.355 302.497 364.153 301.242C389.95 299.988 401.718 303.394 403.98 295.34C406.243 287.286 406.034 278.679 401.066 276.957C396.111 275.236 306.582 260.837 196.617 290.618Z" fill="#263238" stroke="#263238" stroke-width="0.75" stroke-miterlimit="10" stroke-linecap="round" stroke-linejoin="round"/>
<path d="M166.135 307.759C166.135 307.759 167.364 318.42 173.918 320.056C180.472 321.691 258.356 306.935 304.258 305.3C350.16 303.665 390.332 302.435 390.332 302.435" stroke="white" stroke-width="0.5" stroke-miterlimit="10" stroke-linecap="round" stroke-linejoin="round"/>
<path d="M204.179 313.17C234.624 305.743 297.249 295.353 402.64 298.328" stroke="white" stroke-width="0.5" stroke-miterlimit="10" stroke-linecap="round" stroke-linejoin="round"/>
<path d="M179.218 319.662C179.218 319.662 186.202 317.965 196.85 315.063" stroke="white" stroke-width="0.5" stroke-miterlimit="10" stroke-linecap="round" stroke-linejoin="round"/>
<path d="M185.636 320.879C185.636 320.879 186.226 327.298 185.267 334.577" stroke="white" stroke-width="0.5" stroke-miterlimit="10" stroke-linecap="round" stroke-linejoin="round"/>
<path d="M184.517 124.25C184.517 124.25 178.652 131.124 178.185 137.284" stroke="#263238" stroke-width="0.75" stroke-miterlimit="10" stroke-linecap="round" stroke-linejoin="round"/>
<path d="M177.582 142.252C177.582 142.252 173.168 212.476 184.849 287.212" stroke="#263238" stroke-width="0.75" stroke-miterlimit="10" stroke-linecap="round" stroke-linejoin="round"/>
<path d="M178.972 223.395C178.972 223.395 169.442 226.715 169.319 231.019C168.999 242.589 170.217 267.28 172.737 269.678C175.258 272.076 183.091 265.731 183.091 265.731C183.091 265.731 194.182 266.69 195.35 264.194C196.518 261.71 191.969 226.764 191.28 223.702C190.592 220.653 178.972 223.395 178.972 223.395Z" fill="#FFF500" stroke="#263238" stroke-miterlimit="10" stroke-linecap="round" stroke-linejoin="round"/>
<path d="M378.023 240.019C380.261 241.286 383.433 241.901 385.954 242.122C382.904 230.662 379.449 217.899 375.883 205.16C372.662 204.926 368.542 204.926 368.592 206.426C368.653 208.885 374.912 238.249 378.023 240.019Z" fill="#FFF500" stroke="#263238" stroke-miterlimit="10" stroke-linecap="round" stroke-linejoin="round"/>
<path d="M177.607 227.01C177.607 227.01 178.012 249.143 179.66 257.751" stroke="#263238" stroke-width="0.75" stroke-miterlimit="10" stroke-linecap="round" stroke-linejoin="round"/>
<path d="M292.552 232.125C292.552 232.125 347.418 223.284 411.346 234.548" stroke="#263238" stroke-miterlimit="10" stroke-linecap="round" stroke-linejoin="round"/>
<path d="M459.584 266.788C463.359 267.907 467.072 269.112 470.687 270.379" stroke="#263238" stroke-miterlimit="10" stroke-linecap="round" stroke-linejoin="round"/>
<path d="M361.079 250.09C361.079 250.09 404.583 252.734 446.242 263.149" stroke="#263238" stroke-miterlimit="10" stroke-linecap="round" stroke-linejoin="round"/>
<path d="M228.673 351.398C228.673 351.398 278.891 342.385 336.831 349.468" stroke="#263238" stroke-miterlimit="10" stroke-linecap="round" stroke-linejoin="round"/>
<path d="M224.173 345.607C224.173 345.607 249.921 342.385 258.295 341.746" stroke="#263238" stroke-miterlimit="10" stroke-linecap="round" stroke-linejoin="round"/>
<path d="M396.615 106.79C400.316 107.319 403.931 107.995 407.337 108.831" stroke="#263238" stroke-miterlimit="10" stroke-linecap="round" stroke-linejoin="round"/>
<path d="M343.606 105.573C343.606 105.573 366.686 103.703 389.102 105.88" stroke="#263238" stroke-miterlimit="10" stroke-linecap="round" stroke-linejoin="round"/>
<path d="M145.219 254.529C145.219 254.529 181.96 237.13 235.129 232.297" stroke="#263238" stroke-miterlimit="10" stroke-linecap="round" stroke-linejoin="round"/>
<path d="M207.093 222.62C207.093 222.62 229.325 216.816 263.164 214.886" stroke="#263238" stroke-miterlimit="10" stroke-linecap="round" stroke-linejoin="round"/>
<path d="M144.616 345.472C144.616 345.472 150.149 357.153 164.905 362.686" stroke="#263238" stroke-miterlimit="10" stroke-linecap="round" stroke-linejoin="round"/>
<path d="M143.386 351.005C143.386 351.005 148.92 359.612 156.298 363.301" stroke="#263238" stroke-miterlimit="10" stroke-linecap="round" stroke-linejoin="round"/>
<path d="M324.756 320.264C324.756 320.264 328.445 337.479 343.2 344.857" stroke="#263238" stroke-miterlimit="10" stroke-linecap="round" stroke-linejoin="round"/>
<path d="M326.6 335.635C326.6 335.635 330.904 342.398 338.282 345.472" stroke="#263238" stroke-miterlimit="10" stroke-linecap="round" stroke-linejoin="round"/>
<path d="M83.3317 368.785C83.3317 368.785 87.0205 374.934 99.9316 374.934" stroke="#263238" stroke-miterlimit="10" stroke-linecap="round" stroke-linejoin="round"/>
<path d="M80.8724 372.474C80.8724 372.474 87.6354 378.622 97.4723 379.237" stroke="#263238" stroke-miterlimit="10" stroke-linecap="round" stroke-linejoin="round"/>
<path d="M247.092 357.301C212.688 359.256 180.016 364.297 150.21 371.786L150.973 372.929C150.973 372.929 178.025 367.187 228.033 379.483C278.042 391.779 281.313 401.616 336.24 401.616C391.167 401.616 444.447 388.496 444.447 388.496C444.447 388.496 441.963 387.119 437.782 384.807C388.524 363.953 320.943 353.108 247.092 357.301Z" fill="#FFF500"/>
<path d="M247.092 357.301C212.688 359.256 180.016 364.297 150.21 371.786L150.973 372.929C150.973 372.929 178.025 367.187 228.033 379.483C278.042 391.779 281.313 401.616 336.24 401.616C391.167 401.616 444.447 388.496 444.447 388.496C444.447 388.496 441.963 387.119 437.782 384.807C388.524 363.953 320.943 353.108 247.092 357.301Z" fill="white"/>
<path d="M126.786 385.434C126.786 385.434 191.341 375.597 247.289 413.101" stroke="#263238" stroke-miterlimit="10" stroke-linecap="round" stroke-linejoin="round"/>
<path d="M194.415 399.575C194.415 399.575 220.852 407.568 236.837 424.782" stroke="#263238" stroke-miterlimit="10" stroke-linecap="round" stroke-linejoin="round"/>
<path d="M350.577 368.22C350.577 368.22 388.081 371.909 421.895 392.197" stroke="#263238" stroke-miterlimit="10" stroke-linecap="round" stroke-linejoin="round"/>
<path d="M467.539 399.993C474.609 404.358 481.04 408.994 486.77 413.863" stroke="#263238" stroke-miterlimit="10" stroke-linecap="round" stroke-linejoin="round"/>
<path d="M27.568 429C72.3877 390.845 153.371 362.625 247.092 357.301C332.637 352.444 409.796 367.765 459.756 395.444" stroke="#263238" stroke-miterlimit="10" stroke-linecap="round" stroke-linejoin="round"/>
<path d="M300.778 367.605C300.778 367.605 339.511 369.449 365.333 378.057" stroke="#263238" stroke-miterlimit="10" stroke-linecap="round" stroke-linejoin="round"/>
<path d="M125.163 75.6927C125.163 75.6927 123.946 58.6747 99.0338 58.0722C74.1216 57.4697 80.8108 75.0902 74.1216 79.3447C67.4325 83.5992 65.6126 76.91 58.9358 81.1645C52.2467 85.419 55.2961 93.928 49.8243 95.1453C44.3525 96.3627 37.0608 89.6735 30.384 93.928C23.6948 98.1825 23.6948 101.822 20.6576 101.822C17.6205 101.822 11.5462 99.3875 7.89417 101.822C4.25449 104.257 0 107.294 0 107.294H153.715C153.715 107.294 155.535 101.822 148.858 98.1825C142.169 94.5428 139.132 97.58 136.709 94.5428C134.275 91.4933 143.386 83.5992 125.163 75.6927Z" fill="#FFF500"/>
<path d="M216.487 10.6087C216.487 10.6087 215.762 0.378284 200.773 0.00939731C185.784 -0.359489 189.805 10.2399 185.784 12.7975C181.763 15.3551 180.669 11.3342 176.648 13.8918C172.627 16.4494 174.459 21.5647 171.164 22.3024C167.868 23.0279 163.491 19.0071 159.47 21.577C155.449 24.1346 155.449 26.3233 153.617 26.3233C151.785 26.3233 148.133 24.8601 145.944 26.3233C143.755 27.7866 141.198 29.6187 141.198 29.6187H233.665C233.665 29.6187 234.76 26.3233 230.739 24.1346C226.718 21.9459 224.886 23.7657 223.435 21.9459C221.972 20.1137 227.456 15.3674 216.487 10.6087Z" fill="#FFF500"/>
<path d="M125.163 75.6927C125.163 75.6927 123.946 58.6747 99.0338 58.0722C74.1216 57.4697 80.8108 75.0902 74.1216 79.3447C67.4325 83.5992 65.6126 76.91 58.9358 81.1645C52.2467 85.419 55.2961 93.928 49.8243 95.1453C44.3525 96.3627 37.0608 89.6735 30.384 93.928C23.6948 98.1825 23.6948 101.822 20.6576 101.822C17.6205 101.822 11.5462 99.3875 7.89417 101.822C4.25449 104.257 0 107.294 0 107.294H153.715C153.715 107.294 155.535 101.822 148.858 98.1825C142.169 94.5428 139.132 97.58 136.709 94.5428C134.275 91.4933 143.386 83.5992 125.163 75.6927Z" fill="white"/>
<path d="M216.487 10.6087C216.487 10.6087 215.762 0.378284 200.773 0.00939731C185.784 -0.359489 189.805 10.2399 185.784 12.7975C181.763 15.3551 180.669 11.3342 176.648 13.8918C172.627 16.4494 174.459 21.5647 171.164 22.3024C167.868 23.0279 163.491 19.0071 159.47 21.577C155.449 24.1346 155.449 26.3233 153.617 26.3233C151.785 26.3233 148.133 24.8601 145.944 26.3233C143.755 27.7866 141.198 29.6187 141.198 29.6187H233.665C233.665 29.6187 234.76 26.3233 230.739 24.1346C226.718 21.9459 224.886 23.7657 223.435 21.9459C221.972 20.1137 227.456 15.3674 216.487 10.6087Z" fill="white"/>
</svg>
