<svg width="1600" height="274" viewBox="0 0 1600 274" fill="none" xmlns="http://www.w3.org/2000/svg">
<path opacity="0.125" d="M-83.5964 162.085C114.112 159.276 130.059 133.52 258.58 146.485C387.144 159.492 504.516 200.158 646.953 171.204C789.39 142.25 871.93 49.6398 965.447 89.0951C1058.96 128.55 1055.72 184.687 1136.84 178.377C1217.95 172.068 1308.53 110.4 1372.62 109.838C1427.8 109.363 1377.29 165.326 1528.93 161.956" stroke="#FFF500" stroke-width="0.2812" stroke-miterlimit="10"/>
<path opacity="0.25" d="M-76.4221 167.444C121.286 164.635 131.874 112.821 260.439 125.785C389.003 138.793 508.061 214.376 650.497 185.422C792.891 156.468 870.807 38.7068 964.281 78.1621C1057.8 117.617 1025.86 193.071 1106.93 186.761C1188.05 180.452 1282.56 106.468 1355.55 107.592C1410.69 108.456 1397.04 184.774 1548.63 170.469" stroke="#FFF500" stroke-width="0.3125" stroke-miterlimit="10"/>
<path opacity="0.375" d="M-69.2917 172.803C128.417 169.994 133.689 92.1206 262.254 105.128C390.818 118.136 511.561 228.637 653.998 199.683C796.434 170.729 869.597 27.8166 963.114 67.2719C1056.63 106.727 995.958 201.454 1077.07 195.145C1158.19 188.836 1256.63 103.14 1338.52 105.344C1393.67 106.857 1416.79 204.263 1568.34 178.983" stroke="#FFF500" stroke-width="0.3438" stroke-miterlimit="10"/>
<path opacity="0.5" d="M-62.1179 178.162C135.591 175.353 135.547 71.4206 264.112 84.4283C392.677 97.4361 515.105 242.854 657.541 213.9C799.935 184.946 868.474 16.8833 961.991 56.3386C1055.51 95.7939 966.14 209.838 1047.25 203.529C1128.37 197.219 1230.74 99.6833 1321.58 103.097C1376.73 105.172 1436.66 223.754 1588.18 187.496" stroke="#FFF500" stroke-width="0.375" stroke-miterlimit="10"/>
<path opacity="0.625" d="M-54.9878 183.477C142.721 180.668 137.362 50.677 265.927 63.6847C394.491 76.6924 518.605 257.028 660.998 228.074C803.435 199.12 867.263 5.90619 960.737 45.3615C1054.25 84.8168 936.191 218.135 1017.26 211.826C1098.38 205.516 1204.69 96.0527 1304.43 100.763C1359.53 103.356 1456.28 243.113 1607.8 195.922" stroke="#FFF500" stroke-width="0.4062" stroke-miterlimit="10"/>
<path opacity="0.75" d="M-47.8577 188.835C149.851 186.026 139.177 29.9771 267.698 42.9848C396.263 55.9925 522.062 271.246 664.455 242.292C806.848 213.338 866.01 -5.02707 959.527 34.4282C1053.04 73.8835 906.243 226.476 987.357 220.21C1068.47 213.9 1178.71 92.4227 1287.36 98.5592C1342.46 101.671 1476.03 262.647 1627.5 204.479" stroke="#FFF500" stroke-width="0.4375" stroke-miterlimit="10"/>
<path opacity="0.875" d="M-40.6833 194.195C157.025 191.386 140.992 9.27782 269.557 22.2855C398.122 35.2932 525.606 285.465 667.999 256.511C810.436 227.557 864.887 -15.9597 958.404 23.5388C1051.92 62.9941 876.425 234.903 957.54 228.594C1038.65 222.285 1152.87 88.6638 1270.37 96.3128C1325.47 99.8997 1495.83 282.137 1647.29 212.993" stroke="#FFF500" stroke-width="0.4688" stroke-miterlimit="10"/>
<path d="M-33.5532 199.553C164.155 196.744 142.807 -11.4227 271.372 1.58497C399.936 14.5927 529.106 299.682 671.499 270.728C813.893 241.774 863.677 -26.8936 957.194 12.6049C1050.71 52.0602 846.477 243.243 927.591 236.977C1008.71 230.668 1126.9 84.8604 1253.3 94.0652C1308.4 98.0841 1515.57 301.583 1667 221.506" stroke="#FFF500" stroke-width="0.5" stroke-miterlimit="10"/>
</svg>
