<svg width="107" height="98" viewBox="0 0 107 98" fill="none" xmlns="http://www.w3.org/2000/svg">
<path d="M68.832 0V15.0773" stroke="#FFF500" stroke-miterlimit="10"/>
<path d="M76.359 7.52704H61.2817" stroke="#FFF500" stroke-miterlimit="10"/>
<path d="M7.5271 27.3755V42.4527" stroke="#FFF500" stroke-miterlimit="10"/>
<path d="M15.0773 34.9026H0" stroke="#FFF500" stroke-miterlimit="10"/>
<path d="M38.1912 27.3755V42.4527" stroke="#FFF500" stroke-miterlimit="10"/>
<path d="M45.7181 34.9026H30.6409" stroke="#FFF500" stroke-miterlimit="10"/>
<path d="M99.4729 27.3755V42.4527" stroke="#FFF500" stroke-miterlimit="10"/>
<path d="M107 34.9026H91.9226" stroke="#FFF500" stroke-miterlimit="10"/>
<path d="M38.1912 54.7505V69.8277" stroke="#FFF500" stroke-miterlimit="10"/>
<path d="M45.7181 62.2775H30.6409" stroke="#FFF500" stroke-miterlimit="10"/>
<path d="M68.832 54.7505V69.8277" stroke="#FFF500" stroke-miterlimit="10"/>
<path d="M76.359 62.2775H61.2817" stroke="#FFF500" stroke-miterlimit="10"/>
<path d="M99.4729 54.7505V69.8277" stroke="#FFF500" stroke-miterlimit="10"/>
<path d="M107 62.2775H91.9226" stroke="#FFF500" stroke-miterlimit="10"/>
<path d="M7.5271 82.1259V97.18" stroke="#FFF500" stroke-miterlimit="10"/>
<path d="M15.0773 89.653H0" stroke="#FFF500" stroke-miterlimit="10"/>
<path d="M38.1912 82.1259V97.18" stroke="#FFF500" stroke-miterlimit="10"/>
<path d="M45.7181 89.653H30.6409" stroke="#FFF500" stroke-miterlimit="10"/>
<path d="M68.832 82.1259V97.18" stroke="#FFF500" stroke-miterlimit="10"/>
<path d="M76.359 89.653H61.2817" stroke="#FFF500" stroke-miterlimit="10"/>
</svg>
