<svg width="285" height="27" viewBox="0 0 285 27" fill="none" xmlns="http://www.w3.org/2000/svg">
<path d="M32.0513 1C39.9382 1 39.9383 11.102 47.842 11.102C55.7457 11.102 55.7456 1 63.6326 1C71.5363 1 71.5363 11.102 79.4233 11.102C87.327 11.102 87.3269 1 95.2138 1C103.118 1 103.118 11.102 111.005 11.102C118.908 11.102 118.908 1 126.795 1C134.699 1 134.699 11.102 142.586 11.102C150.489 11.102 150.489 1 158.376 1C166.28 1 166.28 11.102 174.167 11.102C182.054 11.102 182.054 1 189.958 1C197.845 1 197.845 11.102 205.748 11.102C213.652 11.102 213.652 1 221.539 1C229.443 1 229.443 11.102 237.346 11.102C245.25 11.102 245.25 1 253.137 1C261.041 1 261.041 11.102 268.944 11.102C276.848 11.102 276.848 1 284.752 1" stroke="white" stroke-width="2" stroke-miterlimit="10"/>
<path d="M0 15.0789C7.88693 15.0789 7.88688 25.1808 15.7906 25.1808C23.6943 25.1808 23.6944 15.0789 31.5813 15.0789C39.485 15.0789 39.485 25.1808 47.3719 25.1808C55.2756 25.1808 55.2756 15.0789 63.1626 15.0789C71.0663 15.0789 71.0662 25.1808 78.9532 25.1808C86.8569 25.1808 86.8569 15.0789 94.7439 15.0789C102.648 15.0789 102.648 25.1808 110.534 25.1808C118.438 25.1808 118.438 15.0789 126.325 15.0789C134.229 15.0789 134.229 25.1808 142.116 25.1808C150.003 25.1808 150.003 15.0789 157.906 15.0789C165.793 15.0789 165.793 25.1808 173.697 25.1808C181.601 25.1808 181.601 15.0789 189.488 15.0789C197.391 15.0789 197.391 25.1808 205.295 25.1808C213.199 25.1808 213.199 15.0789 221.086 15.0789C228.989 15.0789 228.989 25.1808 236.893 25.1808C244.797 25.1808 244.797 15.0789 252.701 15.0789" stroke="white" stroke-width="2" stroke-miterlimit="10"/>
</svg>
