<svg width="515" height="418" viewBox="0 0 515 418" fill="none" xmlns="http://www.w3.org/2000/svg">
<path d="M514.396 410.17C514.396 414.397 399.238 417.839 257.198 417.839C115.158 417.839 0 414.411 0 410.17C0 405.942 115.158 402.5 257.198 402.5C399.238 402.5 514.396 405.942 514.396 410.17Z" fill="#FFF500"/>
<path opacity="0.3" d="M514.396 410.17C514.396 414.397 399.238 417.839 257.198 417.839C115.158 417.839 0 414.411 0 410.17C0 405.942 115.158 402.5 257.198 402.5C399.238 402.5 514.396 405.942 514.396 410.17Z" fill="white"/>
<path d="M465.157 262.52C465.198 262.588 468.639 258.929 468.829 258.672C471.037 255.718 473.571 248.7 471.173 245.326C469.452 242.9 466.065 242.819 463.924 244.702C461.729 246.626 461.214 250.176 461.417 252.927C461.634 256.165 465.157 262.507 465.157 262.52Z" fill="#FFF500"/>
<path d="M496.809 249.919C493.421 247.548 486.43 250.136 483.489 252.358C483.232 252.547 479.601 256.016 479.668 256.057C479.668 256.057 479.736 256.084 479.75 256.097C478.639 256.49 477.46 256.938 476.173 257.439C473.815 258.387 471.159 259.498 468.341 260.894C465.523 262.276 462.515 263.861 459.48 265.812C456.445 267.764 453.342 269.986 450.442 272.669C450.415 272.696 450.374 272.736 450.347 272.763C450.943 271.707 452.542 268.726 452.637 268.482C453.992 265.04 454.575 257.615 451.377 255C449.074 253.117 445.795 253.929 444.209 256.314C442.597 258.753 443.044 262.317 443.965 264.918C444.995 267.845 449.67 272.709 450.049 273.102C447.312 275.69 444.724 278.576 442.258 281.625C440.849 283.373 439.48 285.175 438.126 287.004C438.613 286.083 439.047 285.243 439.101 285.121C440.456 281.679 441.039 274.254 437.841 271.639C435.538 269.755 432.259 270.568 430.673 272.953C429.061 275.392 429.508 278.956 430.416 281.557C431.351 284.199 435.239 288.413 436.296 289.524C435.781 290.229 435.267 290.933 434.765 291.638C432.326 295.039 429.914 298.426 427.448 301.692C426.581 302.843 425.673 303.941 424.779 305.052C425.213 304.225 425.579 303.534 425.619 303.426C426.974 299.984 427.557 292.559 424.359 289.944C422.056 288.061 418.777 288.874 417.191 291.259C415.579 293.697 416.026 297.261 416.948 299.863C417.828 302.383 421.405 306.312 422.638 307.626C421.69 308.724 420.741 309.835 419.766 310.865C419.088 311.556 418.479 312.26 417.761 312.911C417.056 313.575 416.365 314.225 415.687 314.875C414.319 316.068 412.923 317.314 411.555 318.453C410.606 319.252 409.699 319.984 408.791 320.742C409.671 319.604 411.352 317.355 411.46 317.152C412.693 315.024 413.845 311.122 413.682 307.83C413.872 307.518 414.021 307.193 414.143 306.854C415.105 304.158 413.791 301.055 410.904 300.337C406.894 299.348 401.298 304.266 399.347 307.396C399.238 307.586 398.209 309.727 397.599 311.095C397.843 310.241 398.087 309.401 398.33 308.521C398.818 306.773 399.252 305.011 399.726 303.114C399.916 302.193 400.119 301.258 400.322 300.323C400.539 299.402 400.647 298.386 400.824 297.41C401.176 295.134 401.42 292.817 401.609 290.473C403.141 290.893 408.615 292.315 411.352 291.895C414.075 291.475 417.435 290.188 418.817 287.627C420.172 285.121 419.346 281.842 416.609 280.69C412.788 279.105 406.514 283.115 404.116 285.92C403.967 286.096 402.477 288.305 401.677 289.538C401.786 288.129 401.894 286.719 401.948 285.297C402.124 281.164 402.165 276.991 402.233 272.818C402.246 271.544 402.287 270.27 402.314 268.997C402.856 269.146 409.319 270.975 412.381 270.514C415.105 270.094 418.465 268.807 419.847 266.246C421.202 263.739 420.376 260.46 417.639 259.309C413.818 257.723 407.544 261.734 405.146 264.539C404.97 264.756 402.815 267.926 402.314 268.766C402.382 265.962 402.477 263.157 402.68 260.406C402.951 256.612 403.439 252.9 404.17 249.336C404.428 249.404 411.162 251.342 414.305 250.867C417.029 250.447 420.389 249.16 421.771 246.599C423.126 244.093 422.3 240.814 419.563 239.662C415.742 238.077 409.468 242.087 407.07 244.892C406.907 245.082 405.281 247.493 404.523 248.672C404.401 248.618 404.428 248.632 404.306 248.577C405.132 244.77 406.42 241.193 407.788 237.887C408.574 235.976 409.441 234.201 410.308 232.481C411.528 232.968 417.11 235.136 419.983 235.028C422.733 234.919 426.215 233.998 427.882 231.6C429.508 229.256 429.047 225.909 426.446 224.459C422.828 222.454 416.148 225.76 413.452 228.294C413.303 228.429 411.975 229.987 411.013 231.139C411.419 230.367 411.826 229.567 412.232 228.849C413.75 226.112 415.295 223.7 416.69 221.573C417.49 220.367 418.235 219.297 418.953 218.308C420.403 218.159 426.215 217.508 428.668 216.113C431.066 214.744 433.722 212.332 434.101 209.433C434.467 206.601 432.516 203.837 429.535 203.769C425.402 203.661 420.999 209.677 419.766 213.159C419.657 213.457 418.546 218.362 418.628 218.348C418.628 218.348 418.695 218.348 418.709 218.335C418.004 219.283 417.259 220.299 416.473 221.424C415.037 223.524 413.425 225.909 411.839 228.619C410.254 231.329 408.615 234.31 407.165 237.616C405.715 240.922 404.346 244.472 403.412 248.32C403.398 248.361 403.398 248.415 403.384 248.455C403.303 247.25 402.978 243.876 402.924 243.618C402.151 240.014 398.547 233.483 394.428 233.063C391.461 232.765 389.185 235.245 389.185 238.104C389.185 241.017 391.529 243.754 393.724 245.42C396.203 247.29 402.775 248.767 403.303 248.889C402.45 252.561 401.88 256.396 401.501 260.298C401.284 262.533 401.135 264.796 401.027 267.059C400.932 266.016 400.824 265.081 400.797 264.959C400.024 261.355 396.42 254.824 392.301 254.404C389.334 254.106 387.057 256.585 387.057 259.444C387.057 262.357 389.388 265.094 391.596 266.761C393.832 268.455 399.414 269.823 400.891 270.162C400.851 271.029 400.81 271.896 400.783 272.777C400.62 276.95 400.485 281.123 400.227 285.202C400.133 286.638 399.997 288.061 399.862 289.47C399.767 288.549 399.685 287.763 399.658 287.641C398.886 284.037 395.282 277.506 391.163 277.086C388.195 276.788 385.919 279.267 385.919 282.126C385.919 285.039 388.25 287.776 390.458 289.443C392.585 291.055 397.734 292.37 399.482 292.776C399.293 294.226 399.116 295.662 398.872 297.058C398.683 298.006 398.574 298.928 398.33 299.863C398.114 300.797 397.897 301.719 397.68 302.64C397.206 304.388 396.718 306.204 396.203 307.897C395.851 309.076 395.499 310.201 395.146 311.325C395.255 309.889 395.404 307.084 395.39 306.854C395.173 303.169 392.599 296.177 388.588 295.134C385.702 294.388 383.074 296.502 382.64 299.321C382.193 302.207 384.09 305.255 386.014 307.233C388.128 309.415 394.157 311.8 394.902 312.098C394.32 313.968 393.724 315.783 393.141 317.477C391.136 323.371 389.225 328.208 387.857 331.568C387.802 331.69 387.762 331.799 387.721 331.907L390.187 333.262C390.268 333.045 390.35 332.829 390.445 332.585C391.759 329.157 393.575 324.225 395.472 318.222C396.081 316.325 396.691 314.293 397.287 312.193C397.802 312.26 400.742 312.613 403.52 312.586C404.265 315.607 407.72 320.58 408.181 321.217C406.663 322.45 405.173 323.642 403.737 324.726C398.805 328.533 394.55 331.528 391.556 333.574C391.434 333.655 391.325 333.736 391.203 333.818L393.913 335.308C396.84 333.208 400.756 330.295 405.254 326.664C406.799 325.417 408.438 324.048 410.091 322.639C410.688 323.154 415.647 327.355 418.56 328.195C421.202 328.953 424.793 329.197 427.137 327.449C429.427 325.742 430.05 322.423 428.031 320.228C425.226 317.179 417.842 318.195 414.495 319.74C414.292 319.835 412.259 321.054 410.986 321.853C411.663 321.271 412.327 320.715 413.018 320.106C414.387 318.913 415.715 317.68 417.151 316.366C417.828 315.702 418.506 315.038 419.183 314.361C419.874 313.71 420.525 312.924 421.216 312.206C422.76 310.499 424.237 308.697 425.701 306.854C426.744 308.046 430.524 312.247 433.044 313.412C435.551 314.564 439.06 315.35 441.635 313.968C444.155 312.626 445.28 309.428 443.613 306.962C441.31 303.534 433.857 303.413 430.307 304.442C430.091 304.51 427.625 305.526 426.283 306.109C427.15 304.998 428.018 303.887 428.858 302.721C431.283 299.375 433.627 295.92 435.985 292.478C436.703 291.421 437.434 290.378 438.166 289.334C438.532 289.768 442.922 294.849 445.727 296.15C448.234 297.302 451.743 298.088 454.317 296.705C456.837 295.364 457.962 292.166 456.295 289.7C453.992 286.272 446.54 286.15 442.99 287.18C442.719 287.261 439.182 288.725 438.302 289.145C439.901 286.841 441.526 284.565 443.22 282.37C445.551 279.348 447.99 276.517 450.564 273.956C450.74 274.159 455.279 279.484 458.165 280.812C460.672 281.964 464.181 282.749 466.756 281.367C469.276 280.026 470.401 276.828 468.734 274.362C466.431 270.934 458.978 270.812 455.428 271.842C455.198 271.91 452.502 273.021 451.228 273.59C451.16 273.482 451.174 273.495 451.092 273.4C453.884 270.677 456.932 268.4 459.886 266.409C461.593 265.257 463.301 264.241 464.967 263.292C465.712 264.376 469.181 269.268 471.634 270.758C473.991 272.181 477.392 273.346 480.102 272.262C482.758 271.205 484.221 268.157 482.839 265.514C480.929 261.856 473.531 260.921 469.886 261.544C469.682 261.585 467.718 262.141 466.282 262.574C467.04 262.154 467.826 261.721 468.558 261.328C471.322 259.878 473.951 258.726 476.295 257.723C477.623 257.168 478.842 256.68 479.98 256.246C481.267 256.924 486.47 259.593 489.289 259.769C492.039 259.946 495.589 259.404 497.5 257.195C499.356 255 499.248 251.626 496.809 249.919Z" fill="#FFF500"/>
<path d="M401.637 225.733C403.615 228.294 410.051 231.654 410.051 231.654C410.119 231.695 410.973 226.736 411 226.424C411.203 222.739 409.455 215.49 405.593 213.999C402.816 212.929 399.957 214.717 399.198 217.481C398.412 220.3 399.957 223.551 401.637 225.733Z" fill="#FFF500"/>
<g opacity="0.5">
<path d="M465.157 262.52C465.198 262.588 468.639 258.929 468.829 258.672C471.037 255.718 473.571 248.7 471.173 245.326C469.452 242.9 466.065 242.819 463.924 244.702C461.729 246.626 461.214 250.176 461.417 252.927C461.634 256.165 465.157 262.507 465.157 262.52Z" fill="white"/>
<path d="M496.809 249.919C493.421 247.548 486.43 250.136 483.489 252.358C483.232 252.547 479.601 256.016 479.668 256.057C479.668 256.057 479.736 256.084 479.75 256.097C478.639 256.49 477.46 256.938 476.173 257.439C473.815 258.387 471.159 259.498 468.341 260.894C465.523 262.276 462.515 263.861 459.48 265.812C456.445 267.764 453.342 269.986 450.442 272.669C450.415 272.696 450.374 272.736 450.347 272.763C450.943 271.707 452.542 268.726 452.637 268.482C453.992 265.04 454.575 257.615 451.377 255C449.074 253.117 445.795 253.929 444.209 256.314C442.597 258.753 443.044 262.317 443.965 264.918C444.995 267.845 449.67 272.709 450.049 273.102C447.312 275.69 444.724 278.576 442.258 281.625C440.849 283.373 439.48 285.175 438.126 287.004C438.613 286.083 439.047 285.243 439.101 285.121C440.456 281.679 441.039 274.254 437.841 271.639C435.538 269.755 432.259 270.568 430.673 272.953C429.061 275.392 429.508 278.956 430.416 281.557C431.351 284.199 435.239 288.413 436.296 289.524C435.781 290.229 435.267 290.933 434.765 291.638C432.326 295.039 429.914 298.426 427.448 301.692C426.581 302.843 425.673 303.941 424.779 305.052C425.213 304.225 425.579 303.534 425.619 303.426C426.974 299.984 427.557 292.559 424.359 289.944C422.056 288.061 418.777 288.874 417.191 291.259C415.579 293.697 416.026 297.261 416.948 299.863C417.828 302.383 421.405 306.312 422.638 307.626C421.69 308.724 420.741 309.835 419.766 310.865C419.088 311.556 418.479 312.26 417.761 312.911C417.056 313.575 416.365 314.225 415.687 314.875C414.319 316.068 412.923 317.314 411.555 318.453C410.606 319.252 409.699 319.984 408.791 320.742C409.671 319.604 411.352 317.355 411.46 317.152C412.693 315.024 413.845 311.122 413.682 307.83C413.872 307.518 414.021 307.193 414.143 306.854C415.105 304.158 413.791 301.055 410.904 300.337C406.894 299.348 401.298 304.266 399.347 307.396C399.238 307.586 398.209 309.727 397.599 311.095C397.843 310.241 398.087 309.401 398.33 308.521C398.818 306.773 399.252 305.011 399.726 303.114C399.916 302.193 400.119 301.258 400.322 300.323C400.539 299.402 400.647 298.386 400.824 297.41C401.176 295.134 401.42 292.817 401.609 290.473C403.141 290.893 408.615 292.315 411.352 291.895C414.075 291.475 417.435 290.188 418.817 287.627C420.172 285.121 419.346 281.842 416.609 280.69C412.788 279.105 406.514 283.115 404.116 285.92C403.967 286.096 402.477 288.305 401.677 289.538C401.786 288.129 401.894 286.719 401.948 285.297C402.124 281.164 402.165 276.991 402.233 272.818C402.246 271.544 402.287 270.27 402.314 268.997C402.856 269.146 409.319 270.975 412.381 270.514C415.105 270.094 418.465 268.807 419.847 266.246C421.202 263.739 420.376 260.46 417.639 259.309C413.818 257.723 407.544 261.734 405.146 264.539C404.97 264.756 402.815 267.926 402.314 268.766C402.382 265.962 402.477 263.157 402.68 260.406C402.951 256.612 403.439 252.9 404.17 249.336C404.428 249.404 411.162 251.342 414.305 250.867C417.029 250.447 420.389 249.16 421.771 246.599C423.126 244.093 422.3 240.814 419.563 239.662C415.742 238.077 409.468 242.087 407.07 244.892C406.907 245.082 405.281 247.493 404.523 248.672C404.401 248.618 404.428 248.632 404.306 248.577C405.132 244.77 406.42 241.193 407.788 237.887C408.574 235.976 409.441 234.201 410.308 232.481C411.528 232.968 417.11 235.136 419.983 235.028C422.733 234.919 426.215 233.998 427.882 231.6C429.508 229.256 429.047 225.909 426.446 224.459C422.828 222.454 416.148 225.76 413.452 228.294C413.303 228.429 411.975 229.987 411.013 231.139C411.419 230.367 411.826 229.567 412.232 228.849C413.75 226.112 415.295 223.7 416.69 221.573C417.49 220.367 418.235 219.297 418.953 218.308C420.403 218.159 426.215 217.508 428.668 216.113C431.066 214.744 433.722 212.332 434.101 209.433C434.467 206.601 432.516 203.837 429.535 203.769C425.402 203.661 420.999 209.677 419.766 213.159C419.657 213.457 418.546 218.362 418.628 218.348C418.628 218.348 418.695 218.348 418.709 218.335C418.004 219.283 417.259 220.299 416.473 221.424C415.037 223.524 413.425 225.909 411.839 228.619C410.254 231.329 408.615 234.31 407.165 237.616C405.715 240.922 404.346 244.472 403.412 248.32C403.398 248.361 403.398 248.415 403.384 248.455C403.303 247.25 402.978 243.876 402.924 243.618C402.151 240.014 398.547 233.483 394.428 233.063C391.461 232.765 389.185 235.245 389.185 238.104C389.185 241.017 391.529 243.754 393.724 245.42C396.203 247.29 402.775 248.767 403.303 248.889C402.45 252.561 401.88 256.396 401.501 260.298C401.284 262.533 401.135 264.796 401.027 267.059C400.932 266.016 400.824 265.081 400.797 264.959C400.024 261.355 396.42 254.824 392.301 254.404C389.334 254.106 387.057 256.585 387.057 259.444C387.057 262.357 389.388 265.094 391.596 266.761C393.832 268.455 399.414 269.823 400.891 270.162C400.851 271.029 400.81 271.896 400.783 272.777C400.62 276.95 400.485 281.123 400.227 285.202C400.133 286.638 399.997 288.061 399.862 289.47C399.767 288.549 399.685 287.763 399.658 287.641C398.886 284.037 395.282 277.506 391.163 277.086C388.195 276.788 385.919 279.267 385.919 282.126C385.919 285.039 388.25 287.776 390.458 289.443C392.585 291.055 397.734 292.37 399.482 292.776C399.293 294.226 399.116 295.662 398.872 297.058C398.683 298.006 398.574 298.928 398.33 299.863C398.114 300.797 397.897 301.719 397.68 302.64C397.206 304.388 396.718 306.204 396.203 307.897C395.851 309.076 395.499 310.201 395.146 311.325C395.255 309.889 395.404 307.084 395.39 306.854C395.173 303.169 392.599 296.177 388.588 295.134C385.702 294.388 383.074 296.502 382.64 299.321C382.193 302.207 384.09 305.255 386.014 307.233C388.128 309.415 394.157 311.8 394.902 312.098C394.32 313.968 393.724 315.783 393.141 317.477C391.136 323.371 389.225 328.208 387.857 331.568C387.802 331.69 387.762 331.799 387.721 331.907L390.187 333.262C390.268 333.045 390.35 332.829 390.445 332.585C391.759 329.157 393.575 324.225 395.472 318.222C396.081 316.325 396.691 314.293 397.287 312.193C397.802 312.26 400.742 312.613 403.52 312.586C404.265 315.607 407.72 320.58 408.181 321.217C406.663 322.45 405.173 323.642 403.737 324.726C398.805 328.533 394.55 331.528 391.556 333.574C391.434 333.655 391.325 333.736 391.203 333.818L393.913 335.308C396.84 333.208 400.756 330.295 405.254 326.664C406.799 325.417 408.438 324.048 410.091 322.639C410.688 323.154 415.647 327.355 418.56 328.195C421.202 328.953 424.793 329.197 427.137 327.449C429.427 325.742 430.05 322.423 428.031 320.228C425.226 317.179 417.842 318.195 414.495 319.74C414.292 319.835 412.259 321.054 410.986 321.853C411.663 321.271 412.327 320.715 413.018 320.106C414.387 318.913 415.715 317.68 417.151 316.366C417.828 315.702 418.506 315.038 419.183 314.361C419.874 313.71 420.525 312.924 421.216 312.206C422.76 310.499 424.237 308.697 425.701 306.854C426.744 308.046 430.524 312.247 433.044 313.412C435.551 314.564 439.06 315.35 441.635 313.968C444.155 312.626 445.28 309.428 443.613 306.962C441.31 303.534 433.857 303.413 430.307 304.442C430.091 304.51 427.625 305.526 426.283 306.109C427.15 304.998 428.018 303.887 428.858 302.721C431.283 299.375 433.627 295.92 435.985 292.478C436.703 291.421 437.434 290.378 438.166 289.334C438.532 289.768 442.922 294.849 445.727 296.15C448.234 297.302 451.743 298.088 454.317 296.705C456.837 295.364 457.962 292.166 456.295 289.7C453.992 286.272 446.54 286.15 442.99 287.18C442.719 287.261 439.182 288.725 438.302 289.145C439.901 286.841 441.526 284.565 443.22 282.37C445.551 279.348 447.99 276.517 450.564 273.956C450.74 274.159 455.279 279.484 458.165 280.812C460.672 281.964 464.181 282.749 466.756 281.367C469.276 280.026 470.401 276.828 468.734 274.362C466.431 270.934 458.978 270.812 455.428 271.842C455.198 271.91 452.502 273.021 451.228 273.59C451.16 273.482 451.174 273.495 451.092 273.4C453.884 270.677 456.932 268.4 459.886 266.409C461.593 265.257 463.301 264.241 464.967 263.292C465.712 264.376 469.181 269.268 471.634 270.758C473.991 272.181 477.392 273.346 480.102 272.262C482.758 271.205 484.221 268.157 482.839 265.514C480.929 261.856 473.531 260.921 469.886 261.544C469.682 261.585 467.718 262.141 466.282 262.574C467.04 262.154 467.826 261.721 468.558 261.328C471.322 259.878 473.951 258.726 476.295 257.723C477.623 257.168 478.842 256.68 479.98 256.246C481.267 256.924 486.47 259.593 489.289 259.769C492.039 259.946 495.589 259.404 497.5 257.195C499.356 255 499.248 251.626 496.809 249.919Z" fill="white"/>
<path d="M401.637 225.733C403.615 228.294 410.051 231.654 410.051 231.654C410.119 231.695 410.973 226.736 411 226.424C411.203 222.739 409.455 215.49 405.593 213.999C402.816 212.929 399.957 214.717 399.198 217.481C398.412 220.3 399.957 223.551 401.637 225.733Z" fill="white"/>
</g>
<path d="M137.149 157.226C137.231 157.24 136.092 151.549 135.97 151.21C134.656 147.159 129.738 140.1 124.968 140.113C121.527 140.113 119.21 143.243 119.535 146.522C119.887 149.869 122.895 152.728 125.619 154.381C128.816 156.305 137.136 157.226 137.149 157.226Z" fill="#FFF500"/>
<path d="M146.389 119.003C141.905 120.616 139.669 128.921 139.804 133.19C139.818 133.555 140.672 139.287 140.739 139.246C140.739 139.246 140.807 139.206 140.834 139.206C140.468 140.52 140.102 141.929 139.723 143.474C139.046 146.333 138.314 149.571 137.745 153.148C137.176 156.725 136.647 160.627 136.471 164.787C136.282 168.96 136.309 173.35 136.918 177.876C136.918 177.93 136.945 177.984 136.945 178.025C136.363 176.751 134.588 173.269 134.425 173.012C132.081 169.448 125.483 163.934 120.876 165.207C117.556 166.115 116.147 169.76 117.339 172.822C118.559 175.966 122.217 177.917 125.279 178.797C128.734 179.773 136.431 178.621 137.04 178.526C137.65 182.835 138.639 187.198 139.872 191.561C140.577 194.054 141.363 196.547 142.189 199.04C141.647 197.956 141.146 196.994 141.065 196.872C138.72 193.309 132.122 187.808 127.515 189.068C124.195 189.976 122.786 193.621 123.979 196.683C125.198 199.826 128.856 201.777 131.919 202.658C135.021 203.539 141.606 202.685 143.341 202.428C143.666 203.376 143.978 204.338 144.303 205.287C145.875 209.839 147.473 214.392 148.896 218.891C149.397 220.476 149.831 222.061 150.278 223.633C149.79 222.671 149.384 221.871 149.303 221.749C146.959 218.186 140.36 212.671 135.753 213.945C132.433 214.853 131.024 218.498 132.217 221.56C133.436 224.703 137.094 226.654 140.157 227.535C143.124 228.375 149.208 227.644 151.267 227.359C151.674 228.985 152.08 230.624 152.405 232.223C152.595 233.321 152.866 234.364 152.988 235.475C153.137 236.573 153.3 237.657 153.449 238.741C153.666 240.827 153.896 242.982 154.059 245.014C154.18 246.437 154.275 247.792 154.357 249.147C153.869 247.561 152.866 244.472 152.758 244.228C151.579 241.654 148.666 237.955 145.455 235.922C145.278 235.543 145.075 235.177 144.845 234.838C142.948 232.142 139.14 231.302 136.539 233.538C132.921 236.654 133.829 245.217 135.496 249.133C135.59 249.363 136.932 251.762 137.813 253.252C137.162 252.453 136.553 251.667 135.875 250.854C134.547 249.228 133.179 247.643 131.715 245.935C130.984 245.136 130.238 244.323 129.48 243.51C128.748 242.684 127.881 241.911 127.068 241.098C125.157 239.256 123.138 237.48 121.052 235.733C122.475 234.567 127.447 230.367 128.883 227.508C130.306 224.663 131.336 220.638 129.845 217.617C128.382 214.663 124.751 213.254 121.838 215.083C117.8 217.617 117.393 226.207 118.437 230.34C118.504 230.597 119.588 233.47 120.212 235.042C118.952 233.998 117.705 232.955 116.391 231.952C112.624 229.039 108.708 226.207 104.819 223.362C103.627 222.495 102.448 221.614 101.269 220.733C101.784 220.327 107.8 215.449 109.413 212.251C110.835 209.406 111.865 205.382 110.375 202.36C108.911 199.406 105.28 197.997 102.367 199.826C98.3292 202.36 97.9227 210.95 98.966 215.083C99.0473 215.395 100.606 219.541 101.066 220.571C98.4647 218.633 95.8903 216.682 93.4378 214.649C90.0369 211.858 86.8663 208.932 83.9938 205.856C84.2377 205.666 90.5382 200.612 92.1912 197.333C93.6139 194.488 94.6437 190.464 93.1533 187.442C91.6899 184.488 88.0586 183.079 85.1455 184.908C81.1077 187.442 80.7012 196.032 81.7445 200.165C81.8123 200.436 83.0046 203.593 83.6008 205.084C83.4789 205.165 83.4924 205.151 83.3705 205.233C80.3354 201.913 77.8152 198.309 75.6201 194.826C74.3465 192.808 73.2354 190.816 72.2056 188.851C73.4793 188.025 79.2514 184.217 81.0535 181.426C82.7878 178.757 84.2376 174.868 83.0859 171.711C81.9613 168.608 78.4926 166.82 75.4033 168.31C71.1081 170.383 69.7667 178.879 70.3494 183.106C70.3765 183.336 70.9591 185.626 71.4062 187.306C70.9591 186.412 70.4713 185.491 70.0513 184.624C68.4795 181.372 67.2465 178.31 66.1761 175.573C65.5799 174.014 65.065 172.592 64.6043 171.264C65.4309 169.8 68.6963 163.893 69.0079 160.641C69.306 157.47 68.8183 153.351 66.3387 151.075C63.9133 148.839 60.011 148.839 57.9515 151.59C55.0926 155.411 57.816 163.581 60.282 167.05C60.4988 167.348 64.374 171.67 64.4146 171.589C64.4146 171.589 64.4553 171.521 64.4688 171.508C64.8889 172.795 65.3496 174.177 65.8916 175.681C66.9078 178.445 68.0866 181.548 69.5906 184.84C71.081 188.133 72.8018 191.683 74.9427 195.247C77.0835 198.824 79.5224 202.482 82.5304 205.91C82.5711 205.951 82.6117 205.991 82.6388 206.018C81.4464 205.287 78.059 203.349 77.7745 203.227C73.8587 201.547 65.3089 200.599 62.1654 204.189C59.9026 206.777 60.7292 210.598 63.412 212.495C66.1625 214.446 70.2952 214.053 73.3303 213.091C76.7583 212.007 82.5304 206.791 82.9911 206.371C85.8771 209.623 89.102 212.725 92.5435 215.679C94.5082 217.373 96.5406 219.012 98.6002 220.638C97.5569 220.042 96.6084 219.514 96.4729 219.446C92.5571 217.766 84.0073 216.817 80.8638 220.408C78.601 222.996 79.4276 226.817 82.1104 228.714C84.8609 230.665 88.9936 230.272 92.0287 229.324C95.1044 228.348 100.118 223.999 101.432 222.833C102.231 223.443 103.017 224.066 103.817 224.676C107.651 227.603 111.486 230.516 115.158 233.483C116.458 234.527 117.692 235.611 118.925 236.681C117.99 236.153 117.204 235.706 117.068 235.651C113.152 233.971 104.603 233.023 101.459 236.613C99.1964 239.201 100.023 243.022 102.706 244.919C105.456 246.87 109.589 246.477 112.624 245.515C115.564 244.58 120.225 240.61 121.797 239.228C123.03 240.367 124.277 241.505 125.428 242.656C126.201 243.469 126.987 244.188 127.718 245.041C128.45 245.868 129.182 246.694 129.9 247.507C131.228 249.133 132.61 250.786 133.87 252.412C134.75 253.523 135.577 254.607 136.403 255.691C135.13 254.634 132.582 252.615 132.352 252.48C128.734 250.231 120.429 247.995 116.784 251.071C114.155 253.293 114.385 257.182 116.757 259.471C119.182 261.816 123.315 262.059 126.458 261.572C129.913 261.03 136.187 256.951 136.959 256.436C138.327 258.238 139.642 260 140.848 261.68C145.062 267.506 148.354 272.52 150.603 276.056C150.685 276.178 150.752 276.3 150.834 276.422L153.747 274.999C153.598 274.769 153.449 274.552 153.286 274.308C150.929 270.785 147.501 265.786 143.11 260C141.728 258.171 140.211 256.233 138.639 254.268C139.046 253.821 141.335 251.288 143.165 248.659C146.511 249.973 153.503 250.027 154.397 250.027C154.546 252.277 154.668 254.485 154.75 256.558C155.048 263.753 155.034 269.742 154.953 273.942C154.953 274.119 154.939 274.268 154.939 274.43L158.15 272.872C158.123 268.712 157.988 263.076 157.568 256.409C157.432 254.119 157.229 251.667 157.012 249.16C157.907 248.943 165.156 247.074 167.906 244.879C170.399 242.887 173.014 239.676 172.92 236.302C172.838 233.009 170.115 230.204 166.714 230.638C161.985 231.248 158.015 238.876 157.229 243.076C157.188 243.32 156.985 246.057 156.89 247.792C156.796 246.762 156.714 245.773 156.592 244.716C156.389 242.629 156.118 240.556 155.834 238.321C155.657 237.25 155.481 236.166 155.305 235.069C155.156 233.985 154.858 232.847 154.628 231.722C154.059 229.134 153.34 226.532 152.568 223.931C154.397 223.741 160.86 222.982 163.638 221.384C166.402 219.798 169.464 217.007 169.884 213.674C170.291 210.395 168.042 207.224 164.6 207.143C159.831 207.021 154.75 213.972 153.34 217.996C153.259 218.254 152.568 221.248 152.229 222.901C151.755 221.343 151.281 219.785 150.752 218.213C149.221 213.701 147.514 209.175 145.847 204.663C145.333 203.281 144.845 201.899 144.343 200.517C144.994 200.463 152.704 199.718 155.806 197.929C158.571 196.344 161.633 193.553 162.066 190.22C162.473 186.941 160.224 183.77 156.782 183.689C152.013 183.567 146.931 190.518 145.522 194.542C145.414 194.84 144.438 199.162 144.249 200.273C143.151 197.225 142.081 194.176 141.146 191.127C139.859 186.927 138.815 182.727 138.124 178.594C138.422 178.567 146.484 177.835 149.655 176.006C152.419 174.421 155.481 171.63 155.915 168.283C156.321 165.017 154.072 161.833 150.63 161.752C145.861 161.63 140.78 168.581 139.371 172.605C139.276 172.863 138.531 176.155 138.206 177.727C138.057 177.727 138.084 177.727 137.935 177.713C137.23 173.269 137.122 168.879 137.216 164.76C137.271 162.375 137.447 160.099 137.677 157.89C139.195 157.904 146.118 157.904 149.154 156.576C152.067 155.302 155.427 152.864 156.213 149.598C156.985 146.387 155.088 142.986 151.687 142.525C146.959 141.888 141.146 148.23 139.303 152.078C139.208 152.281 138.422 154.53 137.88 156.156C138.002 155.153 138.097 154.124 138.233 153.175C138.72 149.598 139.384 146.36 139.994 143.487C140.36 141.861 140.712 140.398 141.065 139.029C142.555 138.271 148.544 135.141 150.59 132.607C152.595 130.127 154.451 126.428 153.638 123.149C152.88 120.006 149.628 117.851 146.389 119.003Z" fill="#FFF500"/>
<path d="M60.1334 192.55C63.873 192.401 71.3253 188.58 71.3253 188.567C71.4066 188.526 67.3146 184.42 67.0301 184.19C63.6969 181.534 55.7027 178.364 51.7191 181.006C48.8601 182.903 48.6433 186.805 50.73 189.352C52.8708 191.967 56.9492 192.686 60.1334 192.55Z" fill="#FFF500"/>
<g opacity="0.5">
<path d="M137.149 157.226C137.231 157.24 136.092 151.549 135.97 151.21C134.656 147.159 129.738 140.1 124.968 140.113C121.527 140.113 119.21 143.243 119.535 146.522C119.887 149.869 122.895 152.728 125.619 154.381C128.816 156.305 137.136 157.226 137.149 157.226Z" fill="white"/>
<path d="M146.389 119.003C141.905 120.616 139.669 128.921 139.804 133.19C139.818 133.555 140.672 139.287 140.739 139.246C140.739 139.246 140.807 139.206 140.834 139.206C140.468 140.52 140.102 141.929 139.723 143.474C139.046 146.333 138.314 149.571 137.745 153.148C137.176 156.725 136.647 160.627 136.471 164.787C136.282 168.96 136.309 173.35 136.918 177.876C136.918 177.93 136.945 177.984 136.945 178.025C136.363 176.751 134.588 173.269 134.425 173.012C132.081 169.448 125.483 163.934 120.876 165.207C117.556 166.115 116.147 169.76 117.339 172.822C118.559 175.966 122.217 177.917 125.279 178.797C128.734 179.773 136.431 178.621 137.04 178.526C137.65 182.835 138.639 187.198 139.872 191.561C140.577 194.054 141.363 196.547 142.189 199.04C141.647 197.956 141.146 196.994 141.065 196.872C138.72 193.309 132.122 187.808 127.515 189.068C124.195 189.976 122.786 193.621 123.979 196.683C125.198 199.826 128.856 201.777 131.919 202.658C135.021 203.539 141.606 202.685 143.341 202.428C143.666 203.376 143.978 204.338 144.303 205.287C145.875 209.839 147.473 214.392 148.896 218.891C149.397 220.476 149.831 222.061 150.278 223.633C149.79 222.671 149.384 221.871 149.303 221.749C146.959 218.186 140.36 212.671 135.753 213.945C132.433 214.853 131.024 218.498 132.217 221.56C133.436 224.703 137.094 226.654 140.157 227.535C143.124 228.375 149.208 227.644 151.267 227.359C151.674 228.985 152.08 230.624 152.405 232.223C152.595 233.321 152.866 234.364 152.988 235.475C153.137 236.573 153.3 237.657 153.449 238.741C153.666 240.827 153.896 242.982 154.059 245.014C154.18 246.437 154.275 247.792 154.357 249.147C153.869 247.561 152.866 244.472 152.758 244.228C151.579 241.654 148.666 237.955 145.455 235.922C145.278 235.543 145.075 235.177 144.845 234.838C142.948 232.142 139.14 231.302 136.539 233.538C132.921 236.654 133.829 245.217 135.496 249.133C135.59 249.363 136.932 251.762 137.813 253.252C137.162 252.453 136.553 251.667 135.875 250.854C134.547 249.228 133.179 247.643 131.715 245.935C130.984 245.136 130.238 244.323 129.48 243.51C128.748 242.684 127.881 241.911 127.068 241.098C125.157 239.256 123.138 237.48 121.052 235.733C122.475 234.567 127.447 230.367 128.883 227.508C130.306 224.663 131.336 220.638 129.845 217.617C128.382 214.663 124.751 213.254 121.838 215.083C117.8 217.617 117.393 226.207 118.437 230.34C118.504 230.597 119.588 233.47 120.212 235.042C118.952 233.998 117.705 232.955 116.391 231.952C112.624 229.039 108.708 226.207 104.819 223.362C103.627 222.495 102.448 221.614 101.269 220.733C101.784 220.327 107.8 215.449 109.413 212.251C110.835 209.406 111.865 205.382 110.375 202.36C108.911 199.406 105.28 197.997 102.367 199.826C98.3292 202.36 97.9227 210.95 98.966 215.083C99.0473 215.395 100.606 219.541 101.066 220.571C98.4647 218.633 95.8903 216.682 93.4378 214.649C90.0369 211.858 86.8663 208.932 83.9938 205.856C84.2377 205.666 90.5382 200.612 92.1912 197.333C93.6139 194.488 94.6437 190.464 93.1533 187.442C91.6899 184.488 88.0586 183.079 85.1455 184.908C81.1077 187.442 80.7012 196.032 81.7445 200.165C81.8123 200.436 83.0046 203.593 83.6008 205.084C83.4789 205.165 83.4924 205.151 83.3705 205.233C80.3354 201.913 77.8152 198.309 75.6201 194.826C74.3465 192.808 73.2354 190.816 72.2056 188.851C73.4793 188.025 79.2514 184.217 81.0535 181.426C82.7878 178.757 84.2376 174.868 83.0859 171.711C81.9613 168.608 78.4926 166.82 75.4033 168.31C71.1081 170.383 69.7667 178.879 70.3494 183.106C70.3765 183.336 70.9591 185.626 71.4062 187.306C70.9591 186.412 70.4713 185.491 70.0513 184.624C68.4795 181.372 67.2465 178.31 66.1761 175.573C65.5799 174.014 65.065 172.592 64.6043 171.264C65.4309 169.8 68.6963 163.893 69.0079 160.641C69.306 157.47 68.8183 153.351 66.3387 151.075C63.9133 148.839 60.011 148.839 57.9515 151.59C55.0926 155.411 57.816 163.581 60.282 167.05C60.4988 167.348 64.374 171.67 64.4146 171.589C64.4146 171.589 64.4553 171.521 64.4688 171.508C64.8889 172.795 65.3496 174.177 65.8916 175.681C66.9078 178.445 68.0866 181.548 69.5906 184.84C71.081 188.133 72.8018 191.683 74.9427 195.247C77.0835 198.824 79.5224 202.482 82.5304 205.91C82.5711 205.951 82.6117 205.991 82.6388 206.018C81.4464 205.287 78.059 203.349 77.7745 203.227C73.8587 201.547 65.3089 200.599 62.1654 204.189C59.9026 206.777 60.7292 210.598 63.412 212.495C66.1625 214.446 70.2952 214.053 73.3303 213.091C76.7583 212.007 82.5304 206.791 82.9911 206.371C85.8771 209.623 89.102 212.725 92.5435 215.679C94.5082 217.373 96.5406 219.012 98.6002 220.638C97.5569 220.042 96.6084 219.514 96.4729 219.446C92.5571 217.766 84.0073 216.817 80.8638 220.408C78.601 222.996 79.4276 226.817 82.1104 228.714C84.8609 230.665 88.9936 230.272 92.0287 229.324C95.1044 228.348 100.118 223.999 101.432 222.833C102.231 223.443 103.017 224.066 103.817 224.676C107.651 227.603 111.486 230.516 115.158 233.483C116.458 234.527 117.692 235.611 118.925 236.681C117.99 236.153 117.204 235.706 117.068 235.651C113.152 233.971 104.603 233.023 101.459 236.613C99.1964 239.201 100.023 243.022 102.706 244.919C105.456 246.87 109.589 246.477 112.624 245.515C115.564 244.58 120.225 240.61 121.797 239.228C123.03 240.367 124.277 241.505 125.428 242.656C126.201 243.469 126.987 244.188 127.718 245.041C128.45 245.868 129.182 246.694 129.9 247.507C131.228 249.133 132.61 250.786 133.87 252.412C134.75 253.523 135.577 254.607 136.403 255.691C135.13 254.634 132.582 252.615 132.352 252.48C128.734 250.231 120.429 247.995 116.784 251.071C114.155 253.293 114.385 257.182 116.757 259.471C119.182 261.816 123.315 262.059 126.458 261.572C129.913 261.03 136.187 256.951 136.959 256.436C138.327 258.238 139.642 260 140.848 261.68C145.062 267.506 148.354 272.52 150.603 276.056C150.685 276.178 150.752 276.3 150.834 276.422L153.747 274.999C153.598 274.769 153.449 274.552 153.286 274.308C150.929 270.785 147.501 265.786 143.11 260C141.728 258.171 140.211 256.233 138.639 254.268C139.046 253.821 141.335 251.288 143.165 248.659C146.511 249.973 153.503 250.027 154.397 250.027C154.546 252.277 154.668 254.485 154.75 256.558C155.048 263.753 155.034 269.742 154.953 273.942C154.953 274.119 154.939 274.268 154.939 274.43L158.15 272.872C158.123 268.712 157.988 263.076 157.568 256.409C157.432 254.119 157.229 251.667 157.012 249.16C157.907 248.943 165.156 247.074 167.906 244.879C170.399 242.887 173.014 239.676 172.92 236.302C172.838 233.009 170.115 230.204 166.714 230.638C161.985 231.248 158.015 238.876 157.229 243.076C157.188 243.32 156.985 246.057 156.89 247.792C156.796 246.762 156.714 245.773 156.592 244.716C156.389 242.629 156.118 240.556 155.834 238.321C155.657 237.25 155.481 236.166 155.305 235.069C155.156 233.985 154.858 232.847 154.628 231.722C154.059 229.134 153.34 226.532 152.568 223.931C154.397 223.741 160.86 222.982 163.638 221.384C166.402 219.798 169.464 217.007 169.884 213.674C170.291 210.395 168.042 207.224 164.6 207.143C159.831 207.021 154.75 213.972 153.34 217.996C153.259 218.254 152.568 221.248 152.229 222.901C151.755 221.343 151.281 219.785 150.752 218.213C149.221 213.701 147.514 209.175 145.847 204.663C145.333 203.281 144.845 201.899 144.343 200.517C144.994 200.463 152.704 199.718 155.806 197.929C158.571 196.344 161.633 193.553 162.066 190.22C162.473 186.941 160.224 183.77 156.782 183.689C152.013 183.567 146.931 190.518 145.522 194.542C145.414 194.84 144.438 199.162 144.249 200.273C143.151 197.225 142.081 194.176 141.146 191.127C139.859 186.927 138.815 182.727 138.124 178.594C138.422 178.567 146.484 177.835 149.655 176.006C152.419 174.421 155.481 171.63 155.915 168.283C156.321 165.017 154.072 161.833 150.63 161.752C145.861 161.63 140.78 168.581 139.371 172.605C139.276 172.863 138.531 176.155 138.206 177.727C138.057 177.727 138.084 177.727 137.935 177.713C137.23 173.269 137.122 168.879 137.216 164.76C137.271 162.375 137.447 160.099 137.677 157.89C139.195 157.904 146.118 157.904 149.154 156.576C152.067 155.302 155.427 152.864 156.213 149.598C156.985 146.387 155.088 142.986 151.687 142.525C146.959 141.888 141.146 148.23 139.303 152.078C139.208 152.281 138.422 154.53 137.88 156.156C138.002 155.153 138.097 154.124 138.233 153.175C138.72 149.598 139.384 146.36 139.994 143.487C140.36 141.861 140.712 140.398 141.065 139.029C142.555 138.271 148.544 135.141 150.59 132.607C152.595 130.127 154.451 126.428 153.638 123.149C152.88 120.006 149.628 117.851 146.389 119.003Z" fill="white"/>
<path d="M60.1334 192.55C63.873 192.401 71.3253 188.58 71.3253 188.567C71.4066 188.526 67.3146 184.42 67.0301 184.19C63.6969 181.534 55.7027 178.364 51.7191 181.006C48.8601 182.903 48.6433 186.805 50.73 189.352C52.8708 191.967 56.9492 192.686 60.1334 192.55Z" fill="white"/>
</g>
<path d="M105.673 294.876C105.673 294.876 128.287 240.339 140.956 242.711C153.625 245.082 119.236 329.658 119.236 329.658C119.236 329.658 159.045 254.567 186.198 254.567C213.352 254.567 176.239 337.558 141.864 365.226C141.864 365.226 196.157 306.732 227.823 319.374C259.488 332.016 164.492 391.309 164.492 391.309C164.492 391.309 219.679 373.925 213.352 387.352C207.024 400.793 189.83 403.164 189.83 403.164L252.266 406.322H35.1072L83.9669 401.579C83.9669 401.579 33.2915 376.282 46.8682 366.012C60.4449 355.741 90.2945 377.867 90.2945 377.867C90.2945 377.867 38.7249 320.959 48.6703 299.619C58.6292 278.278 102.963 338.343 102.963 338.343C102.963 338.343 66.7725 261.666 74.008 248.239C81.2434 234.811 105.673 294.876 105.673 294.876Z" fill="#FFF500"/>
<path d="M98.4375 297.749C118.342 356.567 118.342 398.178 118.342 398.178C118.342 398.178 94.8197 399.086 70.3899 380.984" stroke="#263238" stroke-miterlimit="10" stroke-linecap="round" stroke-linejoin="round"/>
<path d="M108.396 329.428C108.396 329.428 112.922 307.708 124.683 277.858" stroke="#263238" stroke-miterlimit="10" stroke-linecap="round" stroke-linejoin="round"/>
<path d="M167.202 295.039L116.526 370.144C116.526 370.144 82.1375 341.189 70.3765 324.902" stroke="#263238" stroke-miterlimit="10" stroke-linecap="round" stroke-linejoin="round"/>
<path d="M117.448 388.233C117.448 388.233 170.833 362.895 192.553 348.424" stroke="#263238" stroke-miterlimit="10" stroke-linecap="round" stroke-linejoin="round"/>
<path d="M397.571 294.876C397.571 294.876 374.957 240.339 362.288 242.711C349.619 245.082 384.008 329.658 384.008 329.658C384.008 329.658 344.199 254.567 317.046 254.567C289.906 254.567 327.005 337.558 361.38 365.226C361.38 365.226 307.087 306.732 275.422 319.374C243.757 332.016 338.753 391.309 338.753 391.309C338.753 391.309 283.565 373.925 289.893 387.352C296.22 400.793 313.415 403.164 313.415 403.164L250.979 406.322H468.137L419.278 401.579C419.278 401.579 469.953 376.282 456.376 366.012C442.8 355.741 412.95 377.867 412.95 377.867C412.95 377.867 464.52 320.959 454.574 299.619C444.615 278.278 400.281 338.343 400.281 338.343C400.281 338.343 436.472 261.666 429.236 248.239C422.001 234.811 397.571 294.876 397.571 294.876Z" fill="#FFF500"/>
<path opacity="0.5" d="M397.571 294.876C397.571 294.876 374.957 240.339 362.288 242.711C349.619 245.082 384.008 329.658 384.008 329.658C384.008 329.658 344.199 254.567 317.046 254.567C289.906 254.567 327.005 337.558 361.38 365.226C361.38 365.226 307.087 306.732 275.422 319.374C243.757 332.016 338.753 391.309 338.753 391.309C338.753 391.309 283.565 373.925 289.893 387.352C296.22 400.793 313.415 403.164 313.415 403.164L250.979 406.322H468.137L419.278 401.579C419.278 401.579 469.953 376.282 456.376 366.012C442.8 355.741 412.95 377.867 412.95 377.867C412.95 377.867 464.52 320.959 454.574 299.619C444.615 278.278 400.281 338.343 400.281 338.343C400.281 338.343 436.472 261.666 429.236 248.239C422.001 234.811 397.571 294.876 397.571 294.876Z" fill="white"/>
<path d="M404.807 297.749C384.903 356.567 384.903 398.178 384.903 398.178C384.903 398.178 408.425 399.086 432.855 380.984" stroke="#263238" stroke-miterlimit="10" stroke-linecap="round" stroke-linejoin="round"/>
<path d="M394.862 329.428C394.862 329.428 390.336 307.708 378.575 277.858" stroke="#263238" stroke-miterlimit="10" stroke-linecap="round" stroke-linejoin="round"/>
<path d="M336.043 295.039L386.719 370.144C386.719 370.144 421.108 341.189 432.869 324.902" stroke="#263238" stroke-miterlimit="10" stroke-linecap="round" stroke-linejoin="round"/>
<path d="M385.81 388.233C385.81 388.233 332.425 362.895 310.705 348.424" stroke="#263238" stroke-miterlimit="10" stroke-linecap="round" stroke-linejoin="round"/>
<path d="M361.042 411.01H151.836C146.782 411.01 142.69 406.918 142.69 401.864V10.146C142.69 5.09197 146.782 1 151.836 1H361.055C366.109 1 370.201 5.09197 370.201 10.146V401.864C370.187 406.918 366.096 411.01 361.042 411.01Z" fill="#263238" stroke="#263238" stroke-miterlimit="10"/>
<path d="M272.17 25.4975H243.852C242.253 25.4975 240.952 24.1967 240.952 22.5978C240.952 20.999 242.253 19.6982 243.852 19.6982H272.17C273.769 19.6982 275.07 20.999 275.07 22.5978C275.07 24.1967 273.769 25.4975 272.17 25.4975Z" fill="#FFF500"/>
<path d="M355.811 374.358H157.066V25.8362H204.178L209.476 30.2398C211.332 31.7709 213.663 32.611 216.061 32.611H299.174C301.681 32.611 304.106 31.7031 305.99 30.0501L310.786 25.8362H355.825V374.358H355.811Z" fill="#0A0A0A" stroke="#263238" stroke-width="0.9386" stroke-miterlimit="10" stroke-linecap="round" stroke-linejoin="round"/>
<path d="M236.44 51.5262L233.73 42.4209H166.091V51.5262V355.849V364.968H347.397V51.5262H236.44Z" fill="#FFF500"/>
<path d="M341.015 67.9346H172.459V354.941H341.015V67.9346Z" fill="#0A0A0A"/>
<path d="M262.794 385.103C262.794 382.61 260.775 380.591 258.282 380.591C255.789 380.591 253.77 382.61 253.77 385.103C253.77 387.596 255.789 389.615 258.282 389.615C260.761 389.615 262.794 387.596 262.794 385.103Z" fill="#FFF500"/>
<path d="M244.082 342.408C274.733 342.408 299.581 307.053 299.581 263.441C299.581 219.829 274.733 184.474 244.082 184.474C213.43 184.474 188.583 219.829 188.583 263.441C188.583 307.053 213.43 342.408 244.082 342.408Z" fill="#FFF500"/>
<path opacity="0.5" d="M244.082 342.408C274.733 342.408 299.581 307.053 299.581 263.441C299.581 219.829 274.733 184.474 244.082 184.474C213.43 184.474 188.583 219.829 188.583 263.441C188.583 307.053 213.43 342.408 244.082 342.408Z" fill="white"/>
<path d="M251.953 175.301C251.953 175.301 248.485 169.515 245.3 169.217C242.116 168.933 204.205 192.658 198.419 205.11C192.633 217.549 187.132 242.358 202.525 266.259C217.497 289.524 240.965 288.752 253.132 287.6C265.286 286.448 273.429 282.478 285.8 272.587C298.171 262.696 309.43 248.13 311.084 238.239C312.737 228.348 306.68 222.847 302.845 221.478C298.997 220.11 276.735 220.381 260.53 203.891C244.284 187.387 251.953 175.301 251.953 175.301Z" fill="#263238" stroke="#263238" stroke-miterlimit="10" stroke-linecap="round" stroke-linejoin="round"/>
<path d="M256.872 167.768C256.872 167.768 247.035 171.535 240.952 178.187C234.868 184.84 231.115 195.26 230.816 210.598C230.532 225.936 235.45 243.307 254.555 250.827C273.66 258.347 290.733 252.561 296.234 247.358C301.735 242.155 308.388 227.386 308.388 227.386C308.388 227.386 277.996 235.489 263.525 218.416C249.054 201.344 256.872 167.768 256.872 167.768Z" fill="white" stroke="#263238" stroke-miterlimit="10" stroke-linecap="round" stroke-linejoin="round"/>
<path d="M426.892 178.458C419.467 167.334 401.744 164.028 387.734 159.503C373.724 154.963 365.472 145.899 369.185 123.637C372.897 101.375 392.273 65.1027 391.853 58.5041C391.433 51.9055 325.081 52.3255 318.889 54.385C312.71 56.4445 311.463 56.0381 305.691 63.4497C299.919 70.8748 297.033 76.2269 297.033 76.2269L304.187 61.1869L304.702 61.214C304.702 61.214 305.244 59.3035 307.981 55.7535C310.705 52.2035 317.805 43.7486 318.076 29.5622C318.347 15.3758 308.252 16.7443 306.342 21.1073C304.431 25.4703 293.239 40.4832 289.974 44.5751C286.695 48.6671 279.879 59.859 279.879 59.859L272.305 86.1316C272.305 86.1316 270.652 93.9633 261.181 123.637C251.696 153.31 255.815 166.914 255.815 166.914C255.815 166.914 253.336 165.681 247.577 183.404C241.805 201.127 244.285 223.795 254.582 234.513C264.894 245.231 278.484 244.824 293.741 238.632C308.997 232.453 316.003 218.85 316.003 218.85C316.003 218.85 332.072 214.731 344.037 205.652C355.987 196.588 365.066 187.103 382.368 187.929C399.685 188.756 419.467 198.647 426.066 198.241C432.664 197.834 434.317 189.583 426.892 178.458Z" fill="white"/>
<mask id="mask0_1_871" style="mask-type:luminance" maskUnits="userSpaceOnUse" x="244" y="18" width="188" height="225">
<path d="M426.892 178.458C419.467 167.334 401.744 164.028 387.734 159.503C373.724 154.963 365.472 145.899 369.185 123.637C372.897 101.375 392.273 65.1027 391.853 58.5041C391.433 51.9055 325.081 52.3255 318.889 54.385C312.71 56.4445 311.463 56.0381 305.691 63.4497C299.919 70.8748 297.033 76.2269 297.033 76.2269L304.187 61.1869L304.702 61.214C304.702 61.214 305.244 59.3035 307.981 55.7535C310.705 52.2035 317.805 43.7486 318.076 29.5622C318.347 15.3758 308.252 16.7443 306.342 21.1073C304.431 25.4703 293.239 40.4832 289.974 44.5751C286.695 48.6671 279.879 59.859 279.879 59.859L272.305 86.1316C272.305 86.1316 270.652 93.9633 261.181 123.637C251.696 153.31 255.815 166.914 255.815 166.914C255.815 166.914 253.336 165.681 247.577 183.404C241.805 201.127 244.285 223.795 254.582 234.513C264.894 245.231 278.484 244.824 293.741 238.632C308.997 232.453 316.003 218.85 316.003 218.85C316.003 218.85 332.072 214.731 344.037 205.652C355.987 196.588 365.066 187.103 382.368 187.929C399.685 188.756 419.467 198.647 426.066 198.241C432.664 197.834 434.317 189.583 426.892 178.458Z" fill="white"/>
</mask>
<g mask="url(#mask0_1_871)">
<path d="M320.569 139.815C274.704 146.657 260.287 157.619 264.867 172.673C265.747 175.586 267.333 178.282 269.406 180.748C269.419 181.046 269.447 181.344 269.487 181.67C269.487 181.67 270.3 182.171 271.52 183.024C273.078 184.542 274.826 185.951 276.709 187.225C279.717 190.084 282.413 193.661 281.858 196.981C280.679 204.053 264.189 216.424 255.938 217.007C247.686 217.589 244.746 209.351 243.567 218.186C242.388 227.02 260.653 248.808 278.321 246.464C295.99 244.106 310.718 219.364 310.718 219.364C310.718 219.364 308.361 215.245 320.149 202.875C327.94 194.704 339.051 191.154 347.573 187.821C355.649 185.382 363.738 182.401 371.028 178.838C392.002 168.567 416.893 175.41 416.893 175.41C416.893 175.41 366.434 132.959 320.569 139.815Z" fill="#FFF500"/>
</g>
<mask id="mask1_1_871" style="mask-type:luminance" maskUnits="userSpaceOnUse" x="244" y="18" width="188" height="225">
<path d="M426.892 178.458C419.467 167.334 401.744 164.028 387.734 159.503C373.724 154.963 365.472 145.899 369.185 123.637C372.897 101.375 392.273 65.1027 391.853 58.5041C391.433 51.9055 325.081 52.3255 318.889 54.385C312.71 56.4445 311.463 56.0381 305.691 63.4497C299.919 70.8748 297.033 76.2269 297.033 76.2269L304.187 61.1869L304.702 61.214C304.702 61.214 305.244 59.3035 307.981 55.7535C310.705 52.2035 317.805 43.7486 318.076 29.5622C318.347 15.3758 308.252 16.7443 306.342 21.1073C304.431 25.4703 293.239 40.4832 289.974 44.5751C286.695 48.6671 279.879 59.859 279.879 59.859L272.305 86.1316C272.305 86.1316 270.652 93.9633 261.181 123.637C251.696 153.31 255.815 166.914 255.815 166.914C255.815 166.914 253.336 165.681 247.577 183.404C241.805 201.127 244.285 223.795 254.582 234.513C264.894 245.231 278.484 244.824 293.741 238.632C308.997 232.453 316.003 218.85 316.003 218.85C316.003 218.85 332.072 214.731 344.037 205.652C355.987 196.588 365.066 187.103 382.368 187.929C399.685 188.756 419.467 198.647 426.066 198.241C432.664 197.834 434.317 189.583 426.892 178.458Z" fill="white"/>
</mask>
<g mask="url(#mask1_1_871)">
<path opacity="0.5" d="M320.569 139.815C274.704 146.657 260.287 157.619 264.867 172.673C265.747 175.586 267.333 178.282 269.406 180.748C269.419 181.046 269.447 181.344 269.487 181.67C269.487 181.67 270.3 182.171 271.52 183.024C273.078 184.542 274.826 185.951 276.709 187.225C279.717 190.084 282.413 193.661 281.858 196.981C280.679 204.053 264.189 216.424 255.938 217.007C247.686 217.589 244.746 209.351 243.567 218.186C242.388 227.02 260.653 248.808 278.321 246.464C295.99 244.106 310.718 219.364 310.718 219.364C310.718 219.364 308.361 215.245 320.149 202.875C327.94 194.704 339.051 191.154 347.573 187.821C355.649 185.382 363.738 182.401 371.028 178.838C392.002 168.567 416.893 175.41 416.893 175.41C416.893 175.41 366.434 132.959 320.569 139.815Z" fill="white"/>
</g>
<path d="M426.892 178.458C419.467 167.334 401.744 164.028 387.734 159.503C373.724 154.963 365.472 145.899 369.185 123.637C372.897 101.375 392.273 65.1027 391.853 58.5041C391.433 51.9055 325.081 52.3255 318.889 54.385C312.71 56.4445 311.463 56.0381 305.691 63.4497C299.919 70.8748 297.033 76.2269 297.033 76.2269L304.187 61.1869L304.702 61.214C304.702 61.214 305.244 59.3035 307.981 55.7535C310.705 52.2035 317.805 43.7486 318.076 29.5622C318.347 15.3758 308.252 16.7443 306.342 21.1073C304.431 25.4703 293.239 40.4832 289.974 44.5751C286.695 48.6671 279.879 59.859 279.879 59.859L272.305 86.1316C272.305 86.1316 270.652 93.9633 261.181 123.637C251.696 153.31 255.815 166.914 255.815 166.914C255.815 166.914 253.336 165.681 247.577 183.404C241.805 201.127 244.285 223.795 254.582 234.513C264.894 245.231 278.484 244.824 293.741 238.632C308.997 232.453 316.003 218.85 316.003 218.85C316.003 218.85 332.072 214.731 344.037 205.652C355.987 196.588 365.066 187.103 382.368 187.929C399.685 188.756 419.467 198.647 426.066 198.241C432.664 197.834 434.317 189.583 426.892 178.458Z" stroke="#263238" stroke-miterlimit="10" stroke-linecap="round" stroke-linejoin="round"/>
<path d="M427.055 198.159C427.055 198.159 427.922 194.69 418.085 190.057C408.248 185.423 404.197 188.607 404.197 190.924C404.197 193.241 425.605 198.159 427.055 198.159Z" fill="white" stroke="#263238" stroke-miterlimit="10" stroke-linecap="round" stroke-linejoin="round"/>
<path d="M333.915 39.3856L309.079 58.4904H342.37C342.384 58.4904 342.384 35.0226 333.915 39.3856Z" fill="white" stroke="#263238" stroke-miterlimit="10" stroke-linecap="round" stroke-linejoin="round"/>
<path d="M302.779 177.185C305.435 174.122 309.499 170.694 315.637 168.066" stroke="#263238" stroke-miterlimit="10" stroke-linecap="round" stroke-linejoin="round"/>
<path d="M298.266 184.555C298.266 184.555 298.646 183.295 299.757 181.398" stroke="#263238" stroke-miterlimit="10" stroke-linecap="round" stroke-linejoin="round"/>
<path d="M288.376 210.34C287.102 209.229 285.855 207.969 284.663 206.56" stroke="#263238" stroke-miterlimit="10" stroke-linecap="round" stroke-linejoin="round"/>
<path d="M316.003 218.849C316.003 218.849 304.946 220.679 293.904 214.31" stroke="#263238" stroke-miterlimit="10" stroke-linecap="round" stroke-linejoin="round"/>
<path d="M408.831 56.8508H283.741C266.465 56.8508 252.469 70.2242 252.469 86.714V145.655C252.469 159.99 263.051 171.968 277.17 174.854L270.571 194.379L301.152 175.518H408.831C426.106 175.518 440.103 162.144 440.103 145.655V86.714C440.103 70.2242 426.093 56.8508 408.831 56.8508Z" fill="#FFF500" stroke="#263238" stroke-width="2" stroke-miterlimit="10"/>
<path d="M272.833 96.5376H413.451" stroke="#263238" stroke-width="2.0641" stroke-miterlimit="10" stroke-linecap="round"/>
<path d="M272.833 111.022H413.451" stroke="#263238" stroke-width="2.0641" stroke-miterlimit="10" stroke-linecap="round"/>
<path d="M272.833 125.493H413.451" stroke="#263238" stroke-width="2.0641" stroke-miterlimit="10" stroke-linecap="round"/>
<path d="M272.833 139.964H413.451" stroke="#263238" stroke-width="2.0641" stroke-miterlimit="10" stroke-linecap="round"/>
<path d="M438.965 108.515C448.596 108.515 456.403 101.06 456.403 91.8628C456.403 82.666 448.596 75.2104 438.965 75.2104C429.334 75.2104 421.527 82.666 421.527 91.8628C421.527 101.06 429.334 108.515 438.965 108.515Z" fill="#263238"/>
<path d="M437.61 103.624C437.109 102.811 436.851 101.578 436.851 99.9247V86.4293L433.789 88.1365C433.423 88.3262 433.057 88.4211 432.705 88.4211C432.109 88.4211 431.594 88.2043 431.187 87.7572C430.781 87.3236 430.578 86.8087 430.578 86.2125C430.578 85.7789 430.686 85.4131 430.903 85.115C431.12 84.8169 431.485 84.4917 432.014 84.153L437.894 81.0637C438.843 80.4946 439.588 80.2101 440.144 80.2236C442.163 80.2236 443.165 81.7412 443.165 84.7763V100.399C443.165 103.366 442.108 104.843 439.981 104.843C438.911 104.843 438.111 104.437 437.61 103.624Z" fill="white"/>
<path d="M372.057 48.125C372.057 48.125 372.599 59.0459 382.422 64.2219C392.246 69.4113 404.793 68.3138 405.064 61.7694C405.335 55.2249 397.693 48.396 392.517 39.67C387.327 30.9441 375.878 35.8491 370.959 41.8515" fill="white"/>
<path d="M372.057 48.125C372.057 48.125 372.599 59.0459 382.422 64.2219C392.246 69.4113 404.793 68.3138 405.064 61.7694C405.335 55.2249 397.693 48.396 392.517 39.67C387.327 30.9441 375.878 35.8491 370.959 41.8515" stroke="#263238" stroke-miterlimit="10" stroke-linecap="round" stroke-linejoin="round"/>
<path d="M388.98 56.851C388.167 61.2139 391.162 63.6664 393.885 65.0349C396.609 66.4034 402.069 65.5769 405.077 61.7559C405.213 58.5718 403.465 55.3199 401.039 51.8105C397.598 52.1899 389.617 53.4365 388.98 56.851Z" fill="white" stroke="#263238" stroke-miterlimit="10" stroke-linecap="round" stroke-linejoin="round"/>
<path d="M351.598 48.125C351.598 48.125 352.14 59.0459 361.963 64.2219C371.787 69.4113 384.333 68.3138 384.604 61.7694C384.875 55.2249 377.233 48.396 372.058 39.67C366.868 30.9441 355.419 35.8491 350.5 41.8515" fill="white"/>
<path d="M351.598 48.125C351.598 48.125 352.14 59.0459 361.963 64.2219C371.787 69.4113 384.333 68.3138 384.604 61.7694C384.875 55.2249 377.233 48.396 372.058 39.67C366.868 30.9441 355.419 35.8491 350.5 41.8515" stroke="#263238" stroke-miterlimit="10" stroke-linecap="round" stroke-linejoin="round"/>
<path d="M368.521 56.851C367.708 61.2139 370.703 63.6664 373.426 65.0349C376.15 66.4034 381.61 65.5769 384.618 61.7559C384.754 58.5718 383.006 55.3199 380.58 51.8105C377.139 52.1899 369.158 53.4365 368.521 56.851Z" fill="white" stroke="#263238" stroke-miterlimit="10" stroke-linecap="round" stroke-linejoin="round"/>
<path d="M332.56 48.125C332.56 48.125 333.102 59.0459 342.926 64.2219C352.749 69.4113 365.296 68.3138 365.567 61.7694C365.838 55.2249 358.196 48.396 353.02 39.67C347.831 30.9441 336.381 35.8491 331.463 41.8515" fill="white"/>
<path d="M332.56 48.125C332.56 48.125 333.102 59.0459 342.926 64.2219C352.749 69.4113 365.296 68.3138 365.567 61.7694C365.838 55.2249 358.196 48.396 353.02 39.67C347.831 30.9441 336.381 35.8491 331.463 41.8515" stroke="#263238" stroke-miterlimit="10" stroke-linecap="round" stroke-linejoin="round"/>
<path d="M349.471 56.851C348.658 61.2139 351.652 63.6664 354.376 65.0349C357.099 66.4034 362.56 65.5769 365.568 61.7559C365.703 58.5718 363.955 55.3199 361.53 51.8105C358.088 52.1899 350.108 53.4365 349.471 56.851Z" fill="white" stroke="#263238" stroke-miterlimit="10" stroke-linecap="round" stroke-linejoin="round"/>
<path d="M255.829 166.914C255.829 166.914 256.588 183.688 265.856 194.975" stroke="#263238" stroke-miterlimit="10" stroke-linecap="round" stroke-linejoin="round"/>
<path d="M228.892 236.992C228.892 240.407 226.616 243.171 223.811 243.171C221.007 243.171 218.73 240.407 218.73 236.992C218.73 233.578 221.007 230.814 223.811 230.814C226.616 230.814 228.892 233.578 228.892 236.992Z" fill="white"/>
<path d="M216.25 244.688C216.25 248.103 213.974 250.867 211.169 250.867C208.364 250.867 206.088 248.103 206.088 244.688C206.088 241.274 208.364 238.51 211.169 238.51C213.974 238.496 216.25 241.274 216.25 244.688Z" stroke="#263238" stroke-miterlimit="10" stroke-linecap="round" stroke-linejoin="round"/>
</svg>
