<svg width="20" height="19" viewBox="0 0 20 19" fill="none" xmlns="http://www.w3.org/2000/svg">
<path d="M19.4909 0.475305C19.2859 0.302691 19.0377 0.188498 18.7727 0.144865C18.5077 0.101231 18.2357 0.129787 17.9857 0.227497L0.93955 6.88159C0.640563 6.99481 0.38731 7.20258 0.218787 7.4729C0.0502646 7.74323 -0.0241838 8.06111 0.00690595 8.37762C0.034643 8.694 0.164823 8.99292 0.377925 9.22955C0.591026 9.46618 0.875564 9.62777 1.18887 9.69008L5.51966 10.5436V15.922C5.51951 16.2129 5.60632 16.4974 5.76908 16.7392C5.93184 16.9811 6.16321 17.1694 6.43384 17.2803C6.61294 17.352 6.80405 17.3894 6.99712 17.3905C7.19117 17.3912 7.3834 17.3534 7.56257 17.2793C7.74174 17.2052 7.90425 17.0964 8.04057 16.9591L10.4414 14.582L14.0704 17.7576C14.3383 17.9925 14.6828 18.1229 15.04 18.1247C15.1971 18.1279 15.3535 18.1031 15.5017 18.0513C15.7454 17.9747 15.9647 17.8361 16.138 17.6494C16.3113 17.4627 16.4326 17.2342 16.4898 16.9866L19.9618 1.91626C20.0225 1.65622 20.0107 1.38465 19.9277 1.13076C19.8447 0.876867 19.6937 0.650261 19.4909 0.475305ZM6.08294 9.15775L1.48436 8.24913L14.3752 3.21037L6.08294 9.15775ZM6.99712 15.922V11.5716L9.32411 13.6091L6.99712 15.922ZM15.0493 16.6562L7.44035 10.0021L18.4012 2.13653L15.0493 16.6562Z" fill="#FFF500"/>
</svg>
