<svg width="20" height="19" viewBox="0 0 20 19" fill="none" xmlns="http://www.w3.org/2000/svg">
<path d="M19.4909 0.475061C19.2859 0.302447 19.0377 0.188254 18.7727 0.144621C18.5077 0.100987 18.2357 0.129543 17.9857 0.227253L0.93955 6.88135C0.640563 6.99457 0.38731 7.20234 0.218787 7.47266C0.0502646 7.74298 -0.0241838 8.06087 0.00690595 8.37738C0.034643 8.69376 0.164823 8.99267 0.377925 9.2293C0.591026 9.46593 0.875564 9.62752 1.18887 9.68984L5.51966 10.5434V15.9217C5.51951 16.2127 5.60632 16.4972 5.76908 16.739C5.93184 16.9808 6.16321 17.1692 6.43384 17.2801C6.61294 17.3517 6.80405 17.3891 6.99712 17.3902C7.19117 17.3909 7.3834 17.3531 7.56257 17.279C7.74174 17.205 7.90425 17.0961 8.04057 16.9589L10.4414 14.5817L14.0704 17.7574C14.3383 17.9922 14.6828 18.1226 15.04 18.1245C15.1971 18.1277 15.3535 18.1028 15.5017 18.0511C15.7454 17.9744 15.9647 17.8359 16.138 17.6492C16.3113 17.4624 16.4326 17.234 16.4898 16.9864L19.9618 1.91602C20.0225 1.65597 20.0107 1.3844 19.9277 1.13051C19.8447 0.876623 19.6937 0.650016 19.4909 0.475061ZM6.08294 9.15751L1.48436 8.24888L14.3752 3.21012L6.08294 9.15751ZM6.99712 15.9217V11.5713L9.32411 13.6089L6.99712 15.9217ZM15.0493 16.656L7.44035 10.0019L18.4012 2.13629L15.0493 16.656Z" fill="#0A0A0A"/>
</svg>
