<svg width="22" height="19" viewBox="0 0 22 19" fill="none" xmlns="http://www.w3.org/2000/svg">
<path fill-rule="evenodd" clip-rule="evenodd" d="M9.9807 5.0032C9.9807 2.24 12.2207 0 14.9839 0C16.6063 0 17.9007 0.7664 18.7679 1.88C19.6852 1.69199 20.5645 1.35183 21.3695 0.8736C21.0578 1.84353 20.4053 2.6677 19.5327 3.1936L19.5359 3.1984C20.3642 3.09832 21.1731 2.87562 21.9359 2.5376L21.9343 2.5408C21.3951 3.3488 20.7183 4.0608 19.9375 4.6416C19.9791 4.9248 20.0015 5.208 20.0015 5.4896C20.0015 11.3888 15.5071 18.2496 7.2415 18.2496C4.80422 18.2517 2.41791 17.5518 0.367895 16.2336C0.271382 16.1717 0.189315 16.0897 0.127257 15.9932C0.0651982 15.8968 0.0245988 15.7882 0.00821071 15.6747C-0.00817742 15.5612 2.8792e-05 15.4455 0.0322731 15.3354C0.0645173 15.2253 0.120046 15.1235 0.195095 15.0368C0.266462 14.9181 0.370529 14.8226 0.494825 14.7616C0.61912 14.7006 0.758373 14.6767 0.895895 14.6928C2.36149 14.8656 3.82389 14.6864 5.11509 14.1232C4.47823 13.8418 3.90808 13.4289 3.44206 12.9116C2.97604 12.3943 2.6247 11.7843 2.4111 11.1216C2.3716 10.9983 2.36606 10.8667 2.39506 10.7406C2.42406 10.6144 2.48653 10.4984 2.5759 10.4048C2.05007 9.94334 1.62888 9.37488 1.34053 8.73746C1.05218 8.10005 0.903311 7.4084 0.903895 6.7088V6.6544C0.903857 6.48702 0.96214 6.32485 1.06872 6.19578C1.1753 6.06672 1.32352 5.97882 1.48789 5.9472C1.12514 5.24716 0.93635 4.47004 0.937495 3.6816C0.937495 2.9328 0.942295 1.9888 1.46869 1.1376C1.52494 1.04742 1.60044 0.970818 1.6898 0.913278C1.77915 0.855738 1.88013 0.818693 1.98549 0.8048C2.13827 0.756615 2.302 0.755409 2.45548 0.801337C2.60895 0.847265 2.7451 0.938211 2.84629 1.0624C4.62985 3.25646 7.18084 4.6904 9.9823 5.0736V5.0032H9.9807ZM7.2415 16.6496C6.01732 16.6505 4.80144 16.4488 3.6431 16.0528C5.03636 15.823 6.35052 15.25 7.4671 14.3856C7.58412 14.2938 7.66984 14.168 7.71249 14.0255C7.75513 13.8831 7.75261 13.7309 7.70526 13.5899C7.65791 13.4489 7.56807 13.326 7.44807 13.2382C7.32807 13.1503 7.1838 13.1018 7.0351 13.0992C6.49944 13.0896 5.97324 12.9563 5.49755 12.7099C5.02186 12.4634 4.60952 12.1104 4.2927 11.6784C4.59669 11.6544 4.8943 11.6016 5.1823 11.5248C5.33929 11.4828 5.47747 11.389 5.57436 11.2585C5.67126 11.1281 5.72116 10.9686 5.71597 10.8062C5.71078 10.6438 5.65079 10.4879 5.54577 10.3639C5.44074 10.2399 5.29685 10.1551 5.13749 10.1232C4.52879 9.99988 3.96405 9.71626 3.50162 9.30165C3.0392 8.88705 2.69587 8.35649 2.5071 7.7648C2.8271 7.8416 3.16149 7.888 3.50389 7.8992C3.66037 7.90446 3.81429 7.85858 3.94234 7.76851C4.0704 7.67844 4.1656 7.54908 4.21353 7.40004C4.26147 7.251 4.25951 7.0904 4.20797 6.94257C4.15643 6.79473 4.0581 6.66773 3.92789 6.5808C3.45046 6.26273 3.05897 5.83166 2.78822 5.32588C2.51747 4.82011 2.37583 4.25529 2.3759 3.6816C2.3759 3.4128 2.38069 3.1744 2.39669 2.9568C4.63553 5.24158 7.65303 6.59894 10.8479 6.7584C10.9713 6.76467 11.0944 6.74229 11.2077 6.69301C11.321 6.64373 11.4213 6.56888 11.5008 6.47434C11.5803 6.3798 11.6368 6.26813 11.666 6.14808C11.6951 6.02803 11.696 5.90287 11.6687 5.7824C11.5512 5.2828 11.5482 4.7631 11.6599 4.26218C11.7717 3.76126 11.9953 3.29211 12.314 2.88983C12.6327 2.48755 13.0383 2.16257 13.5004 1.9392C13.9625 1.71584 14.4691 1.59988 14.9823 1.6C16.9567 1.6 18.3999 3.4288 18.3999 5.4912C18.3999 10.7008 14.4383 16.6496 7.2399 16.6496H7.2415Z" fill="#0A0A0A"/>
</svg>
