<svg width="167" height="70" viewBox="0 0 167 70" fill="none" xmlns="http://www.w3.org/2000/svg">
<path d="M35 70C54.33 70 70 54.33 70 35C70 15.67 54.33 0 35 0C15.67 0 0 15.67 0 35C0 54.33 15.67 70 35 70Z" fill="#FFF500"/>
<path d="M13.3767 60.6055H23.7663C20.6305 55.3789 19.282 48.5166 19.5009 41.116H17.0518L13.3767 60.6055ZM26.6968 41.116L32.0204 60.6055H38.947L36.8113 52.8132L40.0228 41.116H38.2849L35.9455 49.6386L33.6226 41.116H26.6968ZM47.9027 41.116L51.5301 60.6055H58.4566L54.8371 41.116H47.9027ZM59.7908 41.116H64.81C64.984 47.9794 70.8718 59.7975 78.8321 59.7975C82.8148 59.7975 85.8739 56.5651 85.8739 51.8319C85.8739 48.9343 84.743 44.8171 82.7829 41.116H90.5817C91.1674 42.895 91.4728 44.7988 91.4728 46.7525C91.4728 55.9301 84.2577 62.0485 75.3688 62.0485C65.3254 62.0485 59.1493 54.3139 59.1493 45.6557C59.1493 44.0419 59.374 42.5236 59.7908 41.116ZM94.3589 41.116H101.329C101.301 41.5219 101.285 41.9386 101.285 42.3657V45.425C101.285 54.5448 105.903 60.6055 112.945 60.6055C118.024 60.6055 121.43 56.5073 121.43 51.4856C121.43 48.0423 120.438 44.3381 118.823 41.116H126.123C126.747 42.8818 127.086 44.782 127.086 46.7525C127.086 55.5838 120.102 62.0485 112.368 62.0485C106.884 62.0485 103.883 58.8162 101.285 58.8162C98.861 58.8162 97.9952 62.0485 94.3589 62.0485V41.116ZM129.626 41.116H136.553V60.6055H129.626V41.116ZM144.936 41.116H153.031L154.908 43.9242C155.441 43.0305 155.922 42.1163 156.254 41.116H158.722L155.831 45.3095L166.048 60.6055H157.967L149.655 48.1956C147.693 51.2546 146.134 54.2562 149.482 60.6055H139.092L148.732 46.8102L144.936 41.116Z" fill="url(#paint0_linear_1_35)"/>
<path d="M13.3767 52.7928H23.7663C19.4373 45.5777 18.5139 35.2457 20.4187 24.6828C20.8226 22.2586 21.4576 18.6798 21.977 16.0246L32.0204 52.7928H38.947L36.8113 45.0005L44.7191 16.1978L51.5301 52.7928H58.4566L50.9529 12.3884H44.0264L35.9455 41.8259L27.9224 12.3884H20.9959L13.3767 52.7928ZM75.3688 54.2358C84.2577 54.2358 91.4728 48.1174 91.4728 38.9398C91.4728 30.224 85.4121 22.4894 75.3688 22.4894C66.4798 22.4894 59.1493 28.6079 59.1493 37.843C59.1493 46.5012 65.3254 54.2358 75.3688 54.2358ZM64.8058 32.9947C64.8058 28.0883 67.9227 24.5673 71.9054 24.5673C80.0442 24.5673 85.8739 37.4391 85.8739 44.0192C85.8739 48.7524 82.8148 51.9848 78.8321 51.9848C70.7512 51.9848 64.8058 39.8057 64.8058 32.9947ZM94.3589 10.9453V54.2358C97.9952 54.2358 98.861 51.0035 101.285 51.0035C103.883 51.0035 106.884 54.2358 112.368 54.2358C120.102 54.2358 127.086 47.7711 127.086 38.9398C127.086 29.9931 120.102 22.4894 111.098 22.4894C106.711 22.4894 103.306 24.2787 101.285 27.2803V16.4864C101.285 12.5037 97.5334 10.9453 94.3589 10.9453ZM101.285 34.553C101.285 28.55 104.171 24.5673 108.327 24.5673C115.08 24.5673 121.43 34.9571 121.43 43.6729C121.43 48.6946 118.024 52.7928 112.945 52.7928C105.903 52.7928 101.285 46.7321 101.285 37.6123V34.553ZM136.553 52.7928V29.0696C136.553 25.3177 132.512 23.9324 129.626 23.9324V52.7928H136.553ZM129.395 15.5629C129.395 17.6408 131.069 19.3148 133.205 19.3148C135.283 19.3148 136.957 17.6408 136.957 15.5629C136.957 13.4273 135.283 11.7533 133.205 11.7533C131.069 11.7533 129.395 13.4273 129.395 15.5629ZM148.732 38.9975L139.092 52.7928H149.482C146.134 46.4435 147.693 43.442 149.655 40.3829L157.967 52.7928H166.048L155.831 37.4968L165.182 23.9324H154.792C157.909 29.8776 156.697 33.11 154.908 36.1116L146.769 23.9324H138.688L148.732 38.9975Z" fill="white"/>
<mask id="mask0_1_35" style="mask-type:alpha" maskUnits="userSpaceOnUse" x="0" y="0" width="70" height="70">
<path d="M35 70C54.33 70 70 54.33 70 35C70 15.67 54.33 0 35 0C15.67 0 0 15.67 0 35C0 54.33 15.67 70 35 70Z" fill="#FFF500"/>
</mask>
<g mask="url(#mask0_1_35)">
<path d="M13.3767 52.7928H23.7663C19.4373 45.5777 18.5139 35.2457 20.4187 24.6828C20.8226 22.2586 21.4576 18.6798 21.977 16.0246L32.0204 52.7928H38.947L36.8113 45.0005L44.7191 16.1978L51.5301 52.7928H58.4566L50.9529 12.3884H44.0264L35.9455 41.8259L27.9224 12.3884H20.9959L13.3767 52.7928ZM75.3688 54.2358C84.2577 54.2358 91.4728 48.1174 91.4728 38.9398C91.4728 30.224 85.4121 22.4894 75.3688 22.4894C66.4798 22.4894 59.1493 28.6079 59.1493 37.843C59.1493 46.5012 65.3254 54.2358 75.3688 54.2358ZM64.8058 32.9947C64.8058 28.0883 67.9227 24.5673 71.9054 24.5673C80.0442 24.5673 85.8739 37.4391 85.8739 44.0192C85.8739 48.7524 82.8148 51.9848 78.8321 51.9848C70.7512 51.9848 64.8058 39.8057 64.8058 32.9947ZM94.3589 10.9453V54.2358C97.9952 54.2358 98.861 51.0035 101.285 51.0035C103.883 51.0035 106.884 54.2358 112.368 54.2358C120.102 54.2358 127.086 47.7711 127.086 38.9398C127.086 29.9931 120.102 22.4894 111.098 22.4894C106.711 22.4894 103.306 24.2787 101.285 27.2803V16.4864C101.285 12.5037 97.5334 10.9453 94.3589 10.9453ZM101.285 34.553C101.285 28.55 104.171 24.5673 108.327 24.5673C115.08 24.5673 121.43 34.9571 121.43 43.6729C121.43 48.6946 118.024 52.7928 112.945 52.7928C105.903 52.7928 101.285 46.7321 101.285 37.6123V34.553ZM136.553 52.7928V29.0696C136.553 25.3177 132.512 23.9324 129.626 23.9324V52.7928H136.553ZM129.395 15.5629C129.395 17.6408 131.069 19.3148 133.205 19.3148C135.283 19.3148 136.957 17.6408 136.957 15.5629C136.957 13.4273 135.283 11.7533 133.205 11.7533C131.069 11.7533 129.395 13.4273 129.395 15.5629ZM148.732 38.9975L139.092 52.7928H149.482C146.134 46.4435 147.693 43.442 149.655 40.3829L157.967 52.7928H166.048L155.831 37.4968L165.182 23.9324H154.792C157.909 29.8776 156.697 33.11 154.908 36.1116L146.769 23.9324H138.688L148.732 38.9975Z" fill="#0A0A0A"/>
</g>
<defs>
<linearGradient id="paint0_linear_1_35" x1="89.7124" y1="41.116" x2="89.7124" y2="62.0485" gradientUnits="userSpaceOnUse">
<stop stop-color="#E6E6E6" stop-opacity="0"/>
<stop offset="1" stop-color="#E6E6E6" stop-opacity="0.5"/>
</linearGradient>
</defs>
</svg>
