<svg width="378" height="432" viewBox="0 0 378 432" fill="none" xmlns="http://www.w3.org/2000/svg">
<path d="M355.829 48.5269L317.092 223.864" stroke="#FFF500" stroke-opacity="0.360784" stroke-width="0.679937" stroke-miterlimit="22.9256" stroke-linecap="round" stroke-linejoin="round"/>
<path d="M341.792 67.0259L313.566 194.752" stroke="#FFF500" stroke-opacity="0.360784" stroke-width="0.679937" stroke-miterlimit="22.9256" stroke-linecap="round" stroke-linejoin="round"/>
<path d="M355.931 94.9463L336.972 180.732" stroke="#FFF500" stroke-opacity="0.360784" stroke-width="0.679937" stroke-miterlimit="22.9256" stroke-linecap="round" stroke-linejoin="round"/>
<path d="M326.649 36.6362L287.912 211.99" stroke="#FFF500" stroke-opacity="0.129412" stroke-width="0.679937" stroke-miterlimit="22.9256" stroke-linecap="round" stroke-linejoin="round"/>
<path d="M312.612 55.1362L284.386 182.879" stroke="#FFF500" stroke-opacity="0.129412" stroke-width="0.679937" stroke-miterlimit="22.9256" stroke-linecap="round" stroke-linejoin="round"/>
<path d="M326.736 83.0557L307.793 168.842" stroke="#FFF500" stroke-opacity="0.129412" stroke-width="0.679937" stroke-miterlimit="22.9256" stroke-linecap="round" stroke-linejoin="round"/>
<path d="M297.468 24.7632L258.714 200.117" stroke="#FFF500" stroke-opacity="0.129412" stroke-width="0.679937" stroke-miterlimit="22.9256" stroke-linecap="round" stroke-linejoin="round"/>
<path d="M283.415 43.2627L255.206 170.988" stroke="#FFF500" stroke-opacity="0.129412" stroke-width="0.679937" stroke-miterlimit="22.9256" stroke-linecap="round" stroke-linejoin="round"/>
<path d="M297.555 71.1826L278.613 156.969" stroke="#FFF500" stroke-opacity="0.129412" stroke-width="0.679937" stroke-miterlimit="22.9256" stroke-linecap="round" stroke-linejoin="round"/>
<path d="M268.273 12.8901L229.536 188.228" stroke="#FFF500" stroke-opacity="0.129412" stroke-width="0.679937" stroke-miterlimit="22.9256" stroke-linecap="round" stroke-linejoin="round"/>
<path d="M254.236 31.3896L226.027 159.115" stroke="#FFF500" stroke-opacity="0.129412" stroke-width="0.679937" stroke-miterlimit="22.9256" stroke-linecap="round" stroke-linejoin="round"/>
<path d="M268.373 59.292L249.415 145.079" stroke="#FFF500" stroke-opacity="0.360784" stroke-width="0.679937" stroke-miterlimit="22.9256" stroke-linecap="round" stroke-linejoin="round"/>
<path d="M239.091 1L200.354 176.354" stroke="#FFF500" stroke-opacity="0.015686" stroke-width="0.679937" stroke-miterlimit="22.9256" stroke-linecap="round" stroke-linejoin="round"/>
<path d="M225.054 19.4995L196.828 147.225" stroke="#FFF500" stroke-opacity="0.015686" stroke-width="0.679937" stroke-miterlimit="22.9256" stroke-linecap="round" stroke-linejoin="round"/>
<path d="M239.194 47.4194L220.235 133.206" stroke="#FFF500" stroke-opacity="0.047059" stroke-width="0.679937" stroke-miterlimit="22.9256" stroke-linecap="round" stroke-linejoin="round"/>
<path d="M1.85061 299.14L223.385 427.036C224.526 427.7 225.94 427.7 227.081 427.036L338.351 362.372C340.804 360.958 340.787 357.415 338.351 356.002L116.817 228.105C115.675 227.441 114.262 227.441 113.121 228.105L1.83322 292.769C-0.619758 294.183 -0.602375 297.726 1.83322 299.14H1.85061Z" fill="url(#paint0_linear_30_1168)"/>
<path d="M0.010498 295.971C0.010498 297.215 0.624071 298.441 1.85056 299.14L223.385 427.035C224.526 427.7 225.94 427.7 227.081 427.035L338.351 362.372C339.391 361.759 339.969 360.771 340.123 359.715H340.157V363.087C340.157 363.224 340.157 363.36 340.157 363.496V363.752H340.123C339.987 364.825 339.407 365.813 338.351 366.426L227.081 431.09C225.94 431.754 224.543 431.754 223.385 431.09L1.85056 303.211C0.828164 302.614 0.249362 301.644 0.0787475 300.622L0.010498 300.57V295.954V295.971Z" fill="url(#paint1_linear_30_1168)"/>
<path d="M0.010498 295.971C0.010498 297.215 0.624071 298.441 1.85056 299.14L223.385 427.035C224.526 427.7 225.94 427.7 227.081 427.035L338.351 362.372C339.391 361.759 339.969 360.771 340.123 359.715H340.157V363.087C340.157 363.224 340.157 363.36 340.157 363.496V363.752H340.123C339.987 364.825 339.407 365.813 338.351 366.426L227.081 431.09C225.94 431.754 224.543 431.754 223.385 431.09L1.85056 303.211C0.828164 302.614 0.249362 301.644 0.0787475 300.622L0.010498 300.57V295.954V295.971Z" fill="#FFF500"/>
<path d="M225.548 325.271L231.408 321.881C232.175 321.438 232.175 320.722 231.408 320.28L225.548 316.907C224.782 316.464 223.538 316.464 222.772 316.907L216.911 320.297C216.145 320.74 216.145 321.455 216.911 321.898L222.772 325.271C223.538 325.714 224.782 325.714 225.531 325.271H225.548ZM237.268 318.491L244.32 314.402C244.746 314.147 244.746 313.755 244.32 313.5L237.251 309.429C236.825 309.173 236.126 309.173 235.683 309.429L228.632 313.517C228.205 313.772 228.205 314.164 228.632 314.42L235.701 318.491C236.126 318.746 236.825 318.746 237.268 318.491ZM212.636 332.732L219.706 328.644C220.131 328.405 220.131 327.996 219.706 327.758L212.619 323.67C212.193 323.431 211.495 323.431 211.069 323.67L203.999 327.758C203.573 327.996 203.573 328.405 203.999 328.644L211.086 332.732C211.512 332.97 212.21 332.97 212.636 332.732ZM200.967 339.478L206.759 336.122C207.542 335.662 207.542 334.946 206.759 334.487L200.95 331.148C200.167 330.705 198.906 330.705 198.123 331.148L192.331 334.503C191.547 334.964 191.547 335.679 192.331 336.139L198.139 339.478C198.923 339.921 200.184 339.921 200.967 339.478ZM212.925 317.98L218.786 314.59C219.552 314.147 219.552 313.432 218.786 312.989L212.925 309.616C212.159 309.173 210.915 309.173 210.166 309.616L204.306 313.006C203.54 313.449 203.54 314.164 204.306 314.607L210.166 317.98C210.932 318.423 212.176 318.423 212.925 317.98ZM199.996 325.458L207.065 321.37C207.492 321.131 207.492 320.722 207.065 320.484L199.979 316.396C199.553 316.158 198.855 316.158 198.429 316.396L191.36 320.484C190.934 320.722 190.934 321.131 191.36 321.37L198.446 325.458C198.872 325.697 199.571 325.697 199.996 325.458ZM188.327 332.204L194.119 328.848C194.903 328.388 194.903 327.672 194.119 327.213L188.311 323.874C187.527 323.431 186.267 323.431 185.483 323.874L179.691 327.23C178.908 327.672 178.908 328.405 179.691 328.865L185.5 332.204C186.283 332.647 187.544 332.647 188.327 332.204ZM213.59 346.768L219.382 343.413C220.165 342.953 220.165 342.237 219.382 341.777L213.573 338.438C212.789 337.996 211.529 337.996 210.745 338.438L204.954 341.794C204.17 342.254 204.17 342.97 204.954 343.429L210.762 346.768C211.546 347.211 212.806 347.211 213.59 346.768ZM287.792 347.62L294.845 343.532C295.271 343.276 295.271 342.885 294.845 342.629L287.776 338.558C287.35 338.302 286.651 338.302 286.208 338.558L279.156 342.646C278.73 342.901 278.73 343.294 279.156 343.549L286.225 347.62C286.651 347.876 287.35 347.876 287.792 347.62ZM249.891 325.782L256.943 321.694C257.369 321.438 257.369 321.046 256.943 320.791L249.873 316.72C249.448 316.464 248.749 316.464 248.306 316.72L241.254 320.808C240.828 321.063 240.828 321.455 241.254 321.711L248.324 325.782C248.749 326.037 249.448 326.037 249.891 325.782ZM248.92 374.722L243.213 378.027C242.412 378.487 242.412 379.253 243.213 379.714L248.92 383.001C249.72 383.461 251.032 383.461 251.833 383.001L257.539 379.696C258.34 379.237 258.34 378.47 257.539 378.01L251.833 374.722C251.032 374.262 249.72 374.262 248.92 374.722ZM300.433 354.911L307.484 350.822C307.911 350.567 307.911 350.175 307.484 349.92L300.415 345.849C299.99 345.593 299.291 345.593 298.848 345.849L291.796 349.937C291.37 350.192 291.37 350.584 291.796 350.84L298.865 354.911C299.291 355.166 299.99 355.166 300.433 354.911ZM238.188 332.562L244.047 329.172C244.814 328.729 244.814 328.014 244.047 327.571L238.188 324.198C237.421 323.755 236.178 323.755 235.429 324.198L229.568 327.587C228.802 328.03 228.802 328.746 229.568 329.189L235.429 332.562C236.195 333.005 237.439 333.005 238.188 332.562ZM224.628 311.217L231.681 307.129C232.106 306.873 232.106 306.481 231.681 306.226L224.612 302.155C224.185 301.899 223.487 301.899 223.044 302.155L215.992 306.243C215.566 306.499 215.566 306.89 215.992 307.146L223.061 311.217C223.487 311.473 224.185 311.473 224.628 311.217ZM225.259 340.023L232.328 335.935C232.754 335.696 232.754 335.287 232.328 335.049L225.241 330.96C224.816 330.722 224.117 330.722 223.692 330.96L216.622 335.049C216.196 335.287 216.196 335.696 216.622 335.935L223.708 340.023C224.135 340.261 224.832 340.261 225.259 340.023ZM150.426 310.366L156.218 307.009C157.001 306.55 157.001 305.834 156.218 305.375L150.409 302.036C149.626 301.593 148.365 301.593 147.581 302.036L141.79 305.391C141.006 305.834 141.006 306.567 141.79 307.027L147.598 310.366C148.382 310.809 149.642 310.809 150.426 310.366ZM175.023 296.142L180.883 292.752C181.65 292.309 181.65 291.594 180.883 291.151L175.023 287.778C174.257 287.335 173.013 287.335 172.247 287.778L166.388 291.167C165.621 291.61 165.621 292.326 166.388 292.769L172.247 296.142C173.013 296.585 174.257 296.585 175.023 296.142ZM162.095 303.62L169.164 299.531C169.59 299.293 169.59 298.884 169.164 298.645L162.078 294.557C161.652 294.319 160.954 294.319 160.528 294.557L153.458 298.645C153.032 298.884 153.032 299.293 153.458 299.531L160.545 303.62C160.971 303.858 161.669 303.858 162.095 303.62ZM186.726 289.379L193.779 285.291C194.204 285.035 194.204 284.643 193.779 284.388L186.709 280.316C186.283 280.061 185.585 280.061 185.142 280.316L178.09 284.405C177.664 284.66 177.664 285.052 178.09 285.308L185.159 289.379C185.585 289.634 186.283 289.634 186.726 289.379ZM137.122 274.304L142.982 270.913C143.749 270.47 143.749 269.755 142.982 269.312L137.122 265.939C136.356 265.497 135.112 265.497 134.346 265.939L128.486 269.329C127.719 269.772 127.719 270.488 128.486 270.931L134.346 274.304C135.112 274.746 136.356 274.746 137.105 274.304H137.122ZM124.193 281.782L131.262 277.693C131.688 277.454 131.688 277.046 131.262 276.807L124.176 272.719C123.75 272.48 123.052 272.48 122.625 272.719L115.556 276.807C115.131 277.046 115.131 277.454 115.556 277.693L122.643 281.782C123.068 282.02 123.767 282.02 124.193 281.782ZM148.825 267.541L155.877 263.453C156.303 263.197 156.303 262.805 155.877 262.549L148.808 258.478C148.382 258.223 147.683 258.223 147.241 258.478L140.188 262.567C139.762 262.822 139.762 263.214 140.188 263.469L147.258 267.541C147.683 267.796 148.382 267.796 148.825 267.541ZM261.252 367.584L255.461 370.941C254.677 371.384 254.677 372.116 255.461 372.576L261.27 375.914C262.053 376.357 263.314 376.357 264.098 375.914L269.889 372.559C270.673 372.099 270.673 371.384 269.889 370.923L264.08 367.584C263.297 367.142 262.036 367.142 261.252 367.584ZM187.34 318.184L194.409 314.096C194.835 313.858 194.835 313.449 194.409 313.21L187.322 309.122C186.897 308.884 186.198 308.884 185.772 309.122L178.703 313.21C178.277 313.449 178.277 313.858 178.703 314.096L185.789 318.184C186.215 318.423 186.914 318.423 187.34 318.184ZM200.269 310.706L206.129 307.316C206.895 306.873 206.895 306.158 206.129 305.715L200.269 302.342C199.502 301.899 198.258 301.899 197.509 302.342L191.65 305.732C190.883 306.175 190.883 306.89 191.65 307.333L197.509 310.706C198.276 311.149 199.519 311.149 200.286 310.706H200.269ZM175.671 324.93L181.463 321.574C182.246 321.114 182.246 320.399 181.463 319.939L175.654 316.601C174.87 316.158 173.609 316.158 172.826 316.601L167.035 319.956C166.251 320.416 166.251 321.131 167.035 321.591L172.843 324.93C173.627 325.373 174.887 325.373 175.671 324.93ZM211.971 303.944L219.024 299.855C219.45 299.6 219.45 299.208 219.024 298.952L211.955 294.881C211.529 294.625 210.83 294.625 210.388 294.881L203.335 298.969C202.909 299.225 202.909 299.617 203.335 299.872L210.404 303.944C210.83 304.199 211.529 304.199 211.971 303.944ZM174.7 310.91L181.769 306.822C182.195 306.584 182.195 306.175 181.769 305.937L174.683 301.848C174.257 301.61 173.559 301.61 173.132 301.848L166.064 305.937C165.638 306.175 165.638 306.584 166.064 306.822L173.15 310.91C173.575 311.149 174.274 311.149 174.7 310.91ZM163.031 317.656L168.823 314.301C169.607 313.84 169.607 313.125 168.823 312.665L163.015 309.327C162.231 308.884 160.971 308.884 160.187 309.327L154.395 312.682C153.612 313.142 153.612 313.858 154.395 314.317L160.204 317.656C160.987 318.099 162.248 318.099 163.031 317.656ZM187.629 303.432L193.489 300.043C194.256 299.6 194.256 298.884 193.489 298.441L187.629 295.068C186.863 294.625 185.619 294.625 184.869 295.068L179.01 298.458C178.243 298.901 178.243 299.617 179.01 300.06L184.869 303.432C185.636 303.875 186.879 303.875 187.629 303.432ZM199.349 296.653L206.402 292.564C206.827 292.309 206.827 291.917 206.402 291.662L199.332 287.59C198.906 287.335 198.208 287.335 197.765 287.59L190.712 291.679C190.287 291.934 190.287 292.326 190.712 292.581L197.782 296.653C198.208 296.908 198.906 296.908 199.349 296.653ZM172.502 273.026L165.451 277.114C165.025 277.369 165.025 277.762 165.451 278.017L172.52 282.088C172.945 282.344 173.644 282.344 174.087 282.088L181.139 278C181.565 277.744 181.565 277.353 181.139 277.097L174.07 273.026C173.644 272.77 172.945 272.77 172.502 273.026ZM135.248 279.976L128.179 284.064C127.753 284.303 127.753 284.712 128.179 284.95L135.265 289.038C135.691 289.276 136.389 289.276 136.815 289.038L143.885 284.95C144.311 284.712 144.311 284.303 143.885 284.064L136.799 279.976C136.372 279.737 135.674 279.737 135.248 279.976ZM122.285 287.471L116.493 290.827C115.709 291.286 115.709 292.002 116.493 292.462L122.302 295.801C123.086 296.244 124.346 296.244 125.129 295.801L130.921 292.445C131.705 292.002 131.705 291.27 130.921 290.81L125.113 287.471C124.329 287.028 123.068 287.028 122.285 287.471ZM146.934 273.213L141.074 276.603C140.308 277.046 140.308 277.762 141.074 278.204L146.934 281.577C147.701 282.02 148.944 282.02 149.694 281.577L155.553 278.187C156.32 277.744 156.32 277.029 155.553 276.586L149.694 273.213C148.927 272.77 147.683 272.77 146.934 273.213ZM159.573 280.487L153.714 283.877C152.947 284.32 152.947 285.035 153.714 285.478L159.573 288.851C160.34 289.294 161.583 289.294 162.334 288.851L168.193 285.461C168.96 285.018 168.96 284.303 168.193 283.86L162.334 280.487C161.567 280.044 160.323 280.044 159.573 280.487ZM109.935 294.609L104.228 297.913C103.428 298.373 103.428 299.14 104.228 299.6L109.935 302.888C110.735 303.347 112.047 303.347 112.848 302.888L118.554 299.583C119.355 299.123 119.355 298.356 118.554 297.896L112.848 294.609C112.047 294.148 110.735 294.148 109.935 294.609ZM147.888 287.25L140.819 291.338C140.393 291.576 140.393 291.985 140.819 292.224L147.905 296.312C148.331 296.55 149.029 296.55 149.455 296.312L156.524 292.224C156.95 291.985 156.95 291.576 156.524 291.338L149.438 287.25C149.012 287.011 148.314 287.011 147.888 287.25ZM159.881 265.735L152.828 269.823C152.402 270.079 152.402 270.47 152.828 270.726L159.897 274.797C160.323 275.053 161.021 275.053 161.464 274.797L168.517 270.709C168.942 270.453 168.942 270.061 168.517 269.806L161.448 265.735C161.021 265.479 160.323 265.479 159.881 265.735ZM97.3121 287.318L91.6059 290.623C90.8049 291.082 90.8049 291.849 91.6059 292.309L97.3121 295.596C98.113 296.057 99.4245 296.057 100.225 295.596L105.932 292.292C106.733 291.832 106.733 291.066 105.932 290.605L100.225 287.318C99.4245 286.858 98.113 286.858 97.3121 287.318ZM274.199 360.072L267.13 364.161C266.704 364.399 266.704 364.808 267.13 365.047L274.216 369.135C274.642 369.373 275.34 369.373 275.766 369.135L282.835 365.047C283.262 364.808 283.262 364.399 282.835 364.161L275.749 360.072C275.323 359.834 274.625 359.834 274.199 360.072ZM121.978 243.896L114.926 247.985C114.5 248.24 114.5 248.632 114.926 248.888L134.89 260.403C135.317 260.658 136.015 260.658 136.457 260.403L143.51 256.315C143.936 256.059 143.936 255.667 143.51 255.412L123.545 243.896C123.119 243.641 122.421 243.641 121.978 243.896ZM110.003 274.474C110.429 274.712 111.127 274.712 111.553 274.474L118.622 270.385C119.048 270.147 119.048 269.738 118.622 269.499L111.536 265.411C111.11 265.173 110.411 265.173 109.986 265.411L102.917 269.499C102.491 269.738 102.491 270.147 102.917 270.385L110.003 274.474ZM84.6725 280.044L78.9656 283.349C78.1653 283.808 78.1653 284.575 78.9656 285.035L84.6725 288.323C85.4734 288.783 86.7849 288.783 87.5852 288.323L93.292 285.018C94.093 284.558 94.093 283.792 93.292 283.331L87.5852 280.044C86.7849 279.584 85.4734 279.584 84.6725 280.044ZM134.924 294.745L129.133 298.101C128.349 298.56 128.349 299.276 129.133 299.736L134.942 303.075C135.725 303.518 136.986 303.518 137.77 303.075L143.561 299.719C144.344 299.259 144.344 298.544 143.561 298.083L137.752 294.745C136.969 294.302 135.708 294.302 134.924 294.745ZM84.4001 265.616L78.6083 268.971C77.8247 269.414 77.8247 270.147 78.6083 270.607L109.441 288.374C110.225 288.817 111.485 288.817 112.269 288.374L118.06 285.018C118.844 284.558 118.844 283.842 118.06 283.383L87.2278 265.616C86.4443 265.173 85.1837 265.173 84.4001 265.616ZM72.0496 272.753L66.3434 276.058C65.5424 276.518 65.5424 277.285 66.3434 277.744L72.0496 281.032C72.8505 281.492 74.162 281.492 74.9629 281.032L80.6692 277.727C81.4701 277.267 81.4701 276.501 80.6692 276.041L74.9629 272.753C74.162 272.293 72.8505 272.293 72.0496 272.753ZM107.482 252.278L92.4744 260.948C90.8391 261.902 90.8391 263.435 92.4744 264.389L95.1488 265.939C96.8009 266.893 99.4586 266.893 101.094 265.939L107.482 262.243C109.117 261.289 111.792 261.289 113.427 262.243L120.104 266.093C121.757 267.046 124.414 267.046 126.049 266.093L128.724 264.543C130.359 263.588 130.359 262.055 128.724 261.101L113.41 252.278C111.758 251.323 109.1 251.323 107.465 252.278H107.482ZM223.64 360.141L217.934 363.445C217.133 363.905 217.133 364.672 217.934 365.132L223.64 368.42C224.441 368.879 225.752 368.879 226.553 368.42L232.26 365.115C233.061 364.655 233.061 363.888 232.26 363.429L226.553 360.141C225.752 359.681 224.441 359.681 223.64 360.141ZM122.745 301.968L117.038 305.272C116.237 305.732 116.237 306.499 117.038 306.959L198.378 353.855C199.178 354.315 200.491 354.315 201.291 353.855L206.998 350.55C207.798 350.09 207.798 349.324 206.998 348.864L125.658 301.968C124.857 301.507 123.545 301.507 122.745 301.968ZM236.007 352.986L230.215 356.342C229.432 356.802 229.432 357.517 230.215 357.977L236.025 361.316C236.808 361.759 238.069 361.759 238.852 361.316L244.644 357.96C245.428 357.5 245.428 356.785 244.644 356.325L238.835 352.986C238.051 352.543 236.791 352.543 236.007 352.986ZM248.971 345.491L241.902 349.579C241.475 349.818 241.475 350.226 241.902 350.465L248.988 354.554C249.414 354.792 250.112 354.792 250.538 354.554L257.607 350.465C258.033 350.226 258.033 349.818 257.607 349.579L250.521 345.491C250.095 345.252 249.396 345.252 248.971 345.491ZM261.61 352.765L254.541 356.853C254.115 357.091 254.115 357.5 254.541 357.738L261.627 361.827C262.053 362.066 262.752 362.066 263.177 361.827L270.247 357.738C270.673 357.5 270.673 357.091 270.247 356.853L263.161 352.765C262.735 352.526 262.036 352.526 261.61 352.765ZM236.297 367.397L230.59 370.702C229.79 371.162 229.79 371.928 230.59 372.389L236.297 375.676C237.097 376.136 238.409 376.136 239.21 375.676L244.917 372.371C245.717 371.912 245.717 371.145 244.917 370.685L239.21 367.397C238.409 366.938 237.097 366.938 236.297 367.397ZM248.647 360.26L242.855 363.616C242.072 364.076 242.072 364.791 242.855 365.251L248.664 368.59C249.448 369.033 250.708 369.033 251.492 368.59L257.284 365.234C258.067 364.774 258.067 364.058 257.284 363.599L251.475 360.26C250.691 359.817 249.43 359.817 248.647 360.26ZM273.211 345.951L267.351 349.34C266.585 349.783 266.585 350.499 267.351 350.942L285.953 361.657C286.72 362.1 287.963 362.1 288.712 361.657L294.572 358.267C295.339 357.824 295.339 357.108 294.572 356.666L275.97 345.951C275.204 345.508 273.96 345.508 273.211 345.951ZM248.051 331.437L242.191 334.827C241.424 335.27 241.424 335.985 242.191 336.428L248.051 339.801C248.818 340.244 250.061 340.244 250.81 339.801L256.67 336.412C257.437 335.969 257.437 335.253 256.67 334.811L250.81 331.437C250.044 330.995 248.8 330.995 248.034 331.437H248.051ZM236.348 338.2L229.279 342.289C228.853 342.527 228.853 342.936 229.279 343.174L236.365 347.263C236.791 347.501 237.489 347.501 237.915 347.263L244.985 343.174C245.41 342.936 245.41 342.527 244.985 342.289L237.898 338.2C237.473 337.961 236.774 337.961 236.348 338.2ZM260.963 323.959L253.911 328.048C253.485 328.303 253.485 328.695 253.911 328.95L260.98 333.021C261.406 333.277 262.104 333.277 262.547 333.021L269.6 328.933C270.025 328.678 270.025 328.286 269.6 328.03L262.53 323.959C262.104 323.704 261.406 323.704 260.963 323.959ZM273.603 331.233L266.551 335.321C266.124 335.577 266.124 335.969 266.551 336.224L273.62 340.295C274.046 340.551 274.744 340.551 275.187 340.295L282.239 336.207C282.665 335.951 282.665 335.56 282.239 335.304L275.17 331.233C274.744 330.977 274.046 330.977 273.603 331.233ZM223.402 345.678L217.61 349.034C216.826 349.494 216.826 350.21 217.61 350.669L223.419 354.008C224.203 354.451 225.463 354.451 226.247 354.008L232.038 350.653C232.822 350.192 232.822 349.477 232.038 349.017L226.23 345.678C225.446 345.235 224.185 345.235 223.402 345.678ZM260.69 338.711L254.831 342.101C254.064 342.544 254.064 343.259 254.831 343.702L260.69 347.075C261.457 347.518 262.7 347.518 263.45 347.075L269.31 343.685C270.077 343.242 270.077 342.527 269.31 342.084L263.45 338.711C262.684 338.269 261.44 338.269 260.69 338.711ZM211.052 352.833L205.345 356.137C204.545 356.598 204.545 357.364 205.345 357.824L211.052 361.111C211.852 361.572 213.164 361.572 213.965 361.111L219.671 357.807C220.472 357.347 220.472 356.58 219.671 356.121L213.965 352.833C213.164 352.373 211.852 352.373 211.052 352.833Z" fill="#FFF500"/>
<path d="M70.0056 327.792L158.126 378.657L193.183 358.42L105.08 307.538L70.0056 327.792Z" fill="#FFF500"/>
<path d="M117.26 228.378L339.425 356.648C341.605 357.909 344.365 356.648 344.875 354.213L375.35 206.233C375.674 204.682 374.959 203.099 373.579 202.298L151.414 74.0099C149.234 72.7493 146.474 74.0099 145.963 76.4461L115.488 224.426C115.164 225.976 115.88 227.56 117.26 228.36V228.378Z" fill="#0A0A0A"/>
<path d="M368.094 204.086L155.655 81.4373C152.879 79.8361 149.336 81.4205 148.688 84.5721L120.479 221.547C120.07 223.54 120.973 225.567 122.745 226.572L335.183 349.221C337.96 350.822 341.503 349.239 342.15 346.087L370.359 209.111C370.768 207.119 369.866 205.091 368.094 204.086Z" fill="#FFF500" fill-opacity="0.478431"/>
<path d="M342.321 356.955L342.457 356.921C342.423 356.921 342.372 356.955 342.321 356.955ZM147.394 74.2315C147.394 74.2315 147.445 74.1974 147.479 74.1807L147.394 74.2315ZM150.273 72.7494L148.297 73.7718C149.268 73.3971 150.409 73.4312 151.414 74.01L373.579 202.281C374.959 203.081 375.658 204.648 375.35 206.216L344.875 354.195C344.671 355.184 344.092 355.967 343.343 356.478L344.961 355.677V355.643C346.17 355.252 347.158 354.298 347.448 352.918L377.923 204.938C378.246 203.388 377.531 201.804 376.151 201.003L153.986 72.7327C152.76 72.0341 151.363 72.1198 150.273 72.7668V72.7494Z" fill="url(#paint2_linear_30_1168)"/>
<path d="M342.321 356.955L342.457 356.921C342.423 356.921 342.372 356.955 342.321 356.955ZM147.394 74.2315C147.394 74.2315 147.445 74.1974 147.479 74.1807L147.394 74.2315ZM150.273 72.7494L148.297 73.7718C149.268 73.3971 150.409 73.4312 151.414 74.01L373.579 202.281C374.959 203.081 375.658 204.648 375.35 206.216L344.875 354.195C344.671 355.184 344.092 355.967 343.343 356.478L344.961 355.677V355.643C346.17 355.252 347.158 354.298 347.448 352.918L377.923 204.938C378.246 203.388 377.531 201.804 376.151 201.003L153.986 72.7327C152.76 72.0341 151.363 72.1198 150.273 72.7668V72.7494Z" fill="#FFF500"/>
<path d="M116.583 306.659L238.629 273.109C248.346 270.335 254.384 266.578 258.535 252.45C266.885 224.111 248.988 186.82 227.497 166.838C216.734 156.822 200.574 150.477 190.755 153.269L82.9805 182.928C81.3104 183.384 79.7079 184.011 78.1557 184.841C70.4973 188.766 64.2561 196.837 60.764 208.645C52.4142 236.986 63.0579 276.17 84.5321 296.152C95.3117 306.185 106.782 309.468 116.583 306.659Z" fill="url(#paint3_linear_30_1168)"/>
<path d="M198.02 161.858C196.027 165.401 194.477 169.592 193.506 174.429C187.834 202.247 202.381 240.49 225.991 259.79C227.814 261.272 229.637 262.601 231.442 263.759L198.02 161.858Z" fill="url(#paint4_linear_30_1168)"/>
<path d="M279.054 244.339C275.903 259.79 267.164 268.767 255.989 270.403L256.023 270.488L234.457 272.975L231.442 263.759L198.02 161.858L195.056 152.813L217.44 148.026L217.491 148.23C226.247 147.242 236.382 150.7 246.535 158.979C270.179 178.279 284.743 216.488 279.054 244.339Z" fill="#0A0A0A"/>
<path d="M222.159 161.875C197.186 144.363 174.002 153 170.373 181.192C166.763 209.367 184.086 246.418 209.059 263.929C234.048 281.441 257.233 272.787 260.844 244.612C264.456 216.437 247.148 179.387 222.159 161.875Z" fill="url(#paint5_linear_30_1168)"/>
<path d="M243.793 219.332L204.034 191.481L204.92 218.481L233.912 238.803L243.793 219.332Z" fill="#0A0A0A"/>
<path d="M198.191 172.692L193.813 169.625C192.978 169.046 192.228 169.336 192.109 170.256C191.99 171.192 192.569 172.402 193.387 172.981L197.765 176.048C199.434 177.223 200.695 179.556 200.763 181.618L202.159 224.272C202.194 225.158 202.722 226.18 203.454 226.674L204.272 227.254C204.936 226.163 206.299 226.01 207.747 227.015C209.195 228.02 210.285 229.894 210.592 231.665L219.092 237.628C219.773 236.537 221.12 236.384 222.567 237.389C224.015 238.394 225.105 240.285 225.412 242.057L225.752 242.295C226.57 242.874 227.337 242.585 227.456 241.665C227.575 240.728 227.013 239.501 226.179 238.922L205.141 224.17L204.954 218.464L204.084 191.464L203.812 183.066C203.676 179.216 201.342 174.855 198.225 172.675L198.191 172.692Z" fill="#0A0A0A"/>
<path d="M207.714 227.032C206.267 226.027 204.921 226.18 204.24 227.27C204.035 227.594 203.899 228.003 203.831 228.48C203.559 230.592 204.853 233.352 206.727 234.664C208.6 235.975 210.338 235.328 210.594 233.216C210.662 232.738 210.628 232.211 210.543 231.683C210.236 229.911 209.146 228.037 207.698 227.032H207.714Z" fill="#0A0A0A"/>
<path d="M222.533 237.423C221.102 236.418 219.739 236.572 219.058 237.662C218.854 237.985 218.717 238.394 218.649 238.871C218.377 240.984 219.672 243.761 221.545 245.055C223.419 246.367 225.156 245.719 225.429 243.607C225.497 243.13 225.463 242.602 225.378 242.074C225.071 240.302 223.964 238.428 222.533 237.407V237.423Z" fill="#0A0A0A"/>
<defs>
<linearGradient id="paint0_linear_30_1168" x1="-191.175" y1="287.248" x2="85.4818" y2="268.541" gradientUnits="userSpaceOnUse">
<stop stop-color="#FFF500"/>
<stop offset="1"/>
</linearGradient>
<linearGradient id="paint1_linear_30_1168" x1="-17.0342" y1="343.337" x2="333.878" y2="396.08" gradientUnits="userSpaceOnUse">
<stop stop-color="#28447D"/>
<stop offset="0.0901961" stop-color="#28447D"/>
<stop offset="0.368627" stop-color="#131033"/>
<stop offset="0.768627" stop-color="#080B35"/>
<stop offset="0.968627" stop-color="#15255F"/>
<stop offset="1" stop-color="#15255F"/>
</linearGradient>
<linearGradient id="paint2_linear_30_1168" x1="155.007" y1="79.5643" x2="303.049" y2="224.251" gradientUnits="userSpaceOnUse">
<stop stop-color="#8256EF"/>
<stop offset="0.0784314" stop-color="#8256EF"/>
<stop offset="0.278431" stop-color="#8256EF"/>
<stop offset="0.631373" stop-color="#131033"/>
<stop offset="1" stop-color="#080B35"/>
</linearGradient>
<linearGradient id="paint3_linear_30_1168" x1="455.417" y1="151.781" x2="57.6588" y2="253.136" gradientUnits="userSpaceOnUse">
<stop stop-color="white"/>
<stop offset="1" stop-color="white" stop-opacity="0"/>
</linearGradient>
<linearGradient id="paint4_linear_30_1168" x1="193.403" y1="149.202" x2="227.058" y2="285.478" gradientUnits="userSpaceOnUse">
<stop stop-color="#8256EF"/>
<stop offset="0.611765" stop-color="#131033"/>
<stop offset="1" stop-color="#080B35"/>
</linearGradient>
<linearGradient id="paint5_linear_30_1168" x1="193.974" y1="158.549" x2="238.611" y2="273.538" gradientUnits="userSpaceOnUse">
<stop stop-color="#D1D3D4"/>
<stop offset="0.109804" stop-color="#D9DBDC"/>
<stop offset="0.4" stop-color="#EAECEC"/>
<stop offset="0.619608" stop-color="#F1F2F2"/>
<stop offset="1" stop-color="#F1F2F2"/>
</linearGradient>
</defs>
</svg>
