<svg width="107" height="98" viewBox="0 0 107 98" fill="none" xmlns="http://www.w3.org/2000/svg">
<path d="M68.832 0V15.0773" stroke="#0A0A0A" stroke-miterlimit="10"/>
<path d="M76.359 7.5271H61.2817" stroke="#0A0A0A" stroke-miterlimit="10"/>
<path d="M7.5271 27.3755V42.4527" stroke="#0A0A0A" stroke-miterlimit="10"/>
<path d="M15.0773 34.9026H0" stroke="#0A0A0A" stroke-miterlimit="10"/>
<path d="M38.1912 27.3755V42.4527" stroke="#0A0A0A" stroke-miterlimit="10"/>
<path d="M45.7181 34.9026H30.6409" stroke="#0A0A0A" stroke-miterlimit="10"/>
<path d="M99.4729 27.3755V42.4527" stroke="#0A0A0A" stroke-miterlimit="10"/>
<path d="M107 34.9026H91.9226" stroke="#0A0A0A" stroke-miterlimit="10"/>
<path d="M38.1912 54.7505V69.8277" stroke="#0A0A0A" stroke-miterlimit="10"/>
<path d="M45.7181 62.2776H30.6409" stroke="#0A0A0A" stroke-miterlimit="10"/>
<path d="M68.832 54.7505V69.8277" stroke="#0A0A0A" stroke-miterlimit="10"/>
<path d="M76.359 62.2776H61.2817" stroke="#0A0A0A" stroke-miterlimit="10"/>
<path d="M99.4729 54.7505V69.8277" stroke="#0A0A0A" stroke-miterlimit="10"/>
<path d="M107 62.2776H91.9226" stroke="#0A0A0A" stroke-miterlimit="10"/>
<path d="M7.5271 82.126V97.1801" stroke="#0A0A0A" stroke-miterlimit="10"/>
<path d="M15.0773 89.6531H0" stroke="#0A0A0A" stroke-miterlimit="10"/>
<path d="M38.1912 82.126V97.1801" stroke="#0A0A0A" stroke-miterlimit="10"/>
<path d="M45.7181 89.6531H30.6409" stroke="#0A0A0A" stroke-miterlimit="10"/>
<path d="M68.832 82.126V97.1801" stroke="#0A0A0A" stroke-miterlimit="10"/>
<path d="M76.359 89.6531H61.2817" stroke="#0A0A0A" stroke-miterlimit="10"/>
</svg>
