<svg width="153" height="139" viewBox="0 0 153 139" fill="none" xmlns="http://www.w3.org/2000/svg">
<path d="M98.3909 0V21.5519" stroke="white" stroke-miterlimit="10"/>
<path d="M109.15 10.7595H87.5983" stroke="white" stroke-miterlimit="10"/>
<path d="M10.7595 39.1313V60.6833" stroke="white" stroke-miterlimit="10"/>
<path d="M21.552 49.8907H0" stroke="white" stroke-miterlimit="10"/>
<path d="M54.5918 39.1313V60.6833" stroke="white" stroke-miterlimit="10"/>
<path d="M65.351 49.8907H43.7991" stroke="white" stroke-miterlimit="10"/>
<path d="M142.19 39.1313V60.6833" stroke="white" stroke-miterlimit="10"/>
<path d="M152.95 49.8907H131.398" stroke="white" stroke-miterlimit="10"/>
<path d="M54.5918 78.2621V99.814" stroke="white" stroke-miterlimit="10"/>
<path d="M65.351 89.0215H43.7991" stroke="white" stroke-miterlimit="10"/>
<path d="M98.3909 78.2621V99.814" stroke="white" stroke-miterlimit="10"/>
<path d="M109.15 89.0215H87.5983" stroke="white" stroke-miterlimit="10"/>
<path d="M142.19 78.2621V99.814" stroke="white" stroke-miterlimit="10"/>
<path d="M152.95 89.0215H131.398" stroke="white" stroke-miterlimit="10"/>
<path d="M10.7595 117.394V138.912" stroke="white" stroke-miterlimit="10"/>
<path d="M21.552 128.153H0" stroke="white" stroke-miterlimit="10"/>
<path d="M54.5918 117.394V138.912" stroke="white" stroke-miterlimit="10"/>
<path d="M65.351 128.153H43.7991" stroke="white" stroke-miterlimit="10"/>
<path d="M98.391 117.394V138.912" stroke="white" stroke-miterlimit="10"/>
<path d="M109.15 128.153H87.5984" stroke="white" stroke-miterlimit="10"/>
</svg>
