<svg width="11" height="11" viewBox="0 0 11 11" fill="none" xmlns="http://www.w3.org/2000/svg">
<path d="M2.40626 0.0134735L10.3612 0.0134728C10.4433 0.0134273 10.5247 0.0295719 10.6006 0.0609821C10.6765 0.0923923 10.7454 0.138454 10.8035 0.196532C10.8616 0.25461 10.9076 0.323565 10.939 0.399457C10.9705 0.475348 10.9866 0.556686 10.9866 0.638821L10.9866 8.59377C10.9866 8.75962 10.9207 8.91868 10.8034 9.03596C10.6861 9.15324 10.5271 9.21912 10.3612 9.21912C10.1954 9.21912 10.0363 9.15324 9.91902 9.03596C9.80174 8.91868 9.73586 8.75963 9.73586 8.59377L9.73641 2.1475L1.08043 10.8035C0.963221 10.9207 0.80425 10.9865 0.638489 10.9865C0.472729 10.9865 0.313758 10.9207 0.196547 10.8035C0.0793374 10.6863 0.013489 10.5273 0.0134889 10.3615C0.0134891 10.1958 0.0793372 10.0368 0.196547 9.9196L8.85253 1.26362L2.40625 1.26417C2.2404 1.26417 2.08134 1.19828 1.96407 1.08101C1.84679 0.963734 1.78091 0.804674 1.78091 0.638822C1.78091 0.472969 1.84679 0.313909 1.96407 0.196634C2.08134 0.0793582 2.2404 0.0134735 2.40626 0.0134735Z" fill="white"/>
</svg>
