<svg width="27" height="26" viewBox="0 0 27 26" fill="none" xmlns="http://www.w3.org/2000/svg">
<path fill-rule="evenodd" clip-rule="evenodd" d="M0 1C0 0.447715 0.442253 0 0.9878 0H4.28047C4.77204 0 5.18882 0.36593 5.25834 0.858579L7.20686 14.6667H22.0609C22.6064 14.6667 23.0487 15.1144 23.0487 15.6667C23.0487 16.219 22.6064 16.6667 22.0609 16.6667H7.48908L7.77131 18.6667H20.7438C22.7442 18.6667 24.3657 20.3082 24.3657 22.3333C24.3657 24.3584 22.7442 26 20.7438 26C18.7434 26 17.1219 24.3584 17.1219 22.3333C17.1219 21.781 17.5641 21.3333 18.1097 21.3333C18.6552 21.3333 19.0975 21.781 19.0975 22.3333C19.0975 23.2538 19.8345 24 20.7438 24C21.6531 24 22.3901 23.2538 22.3901 22.3333C22.3901 21.4128 21.6531 20.6667 20.7438 20.6667H13.4343C13.6868 21.1667 13.8292 21.7332 13.8292 22.3333C13.8292 24.3584 12.2076 26 10.2073 26C8.20693 26 6.58533 24.3584 6.58533 22.3333C6.58533 21.7332 6.72776 21.1667 6.98025 20.6667H6.9146C6.42302 20.6667 6.00625 20.3007 5.93673 19.8081L5.37488 15.8266C5.37306 15.8151 5.37144 15.8036 5.37001 15.7921L3.42375 2H0.9878C0.442253 2 0 1.55228 0 1ZM10.2073 20.6667C9.29801 20.6667 8.56093 21.4128 8.56093 22.3333C8.56093 23.2538 9.29801 24 10.2073 24C11.1165 24 11.8536 23.2538 11.8536 22.3333C11.8536 21.4128 11.1165 20.6667 10.2073 20.6667ZM9.21947 3.66667C9.21947 3.11438 9.66172 2.66667 10.2073 2.66667H26.0122C26.3297 2.66667 26.6279 2.82119 26.8135 3.08196C26.9992 3.34272 27.0497 3.67795 26.9493 3.98289L24.3152 11.9829C24.1427 12.5068 23.5832 12.79 23.0657 12.6153C22.5481 12.4407 22.2684 11.8744 22.441 11.3504L24.6417 4.66667H10.2073C9.66172 4.66667 9.21947 4.21895 9.21947 3.66667Z" fill="#0A0A0A"/>
</svg>
