<svg width="18" height="18" viewBox="0 0 18 18" fill="none" xmlns="http://www.w3.org/2000/svg">
<path d="M16.148 15.3519L12.6275 11.8321C13.6479 10.6071 14.1567 9.03577 14.0481 7.44512C13.9395 5.85447 13.2218 4.36692 12.0444 3.29193C10.867 2.21693 9.32041 1.63725 7.72647 1.67348C6.13253 1.7097 4.61392 2.35904 3.48654 3.48642C2.35916 4.6138 1.70982 6.13241 1.6736 7.72635C1.63737 9.32029 2.21705 10.8668 3.29205 12.0443C4.36705 13.2217 5.85459 13.9394 7.44524 14.048C9.03589 14.1566 10.6072 13.6477 11.8322 12.6273L15.3521 16.1479C15.4043 16.2001 15.4664 16.2416 15.5347 16.2699C15.6029 16.2982 15.6761 16.3127 15.75 16.3127C15.8239 16.3127 15.8971 16.2982 15.9654 16.2699C16.0337 16.2416 16.0957 16.2001 16.148 16.1479C16.2003 16.0956 16.2417 16.0336 16.27 15.9653C16.2983 15.897 16.3129 15.8238 16.3129 15.7499C16.3129 15.676 16.2983 15.6028 16.27 15.5345C16.2417 15.4663 16.2003 15.4042 16.148 15.3519ZM2.81254 7.87492C2.81254 6.87365 3.10945 5.89487 3.66572 5.06234C4.222 4.22982 5.01265 3.58094 5.9377 3.19778C6.86275 2.81461 7.88065 2.71435 8.86268 2.90969C9.84471 3.10503 10.7468 3.58718 11.4548 4.29519C12.1628 5.00319 12.6449 5.90524 12.8403 6.88727C13.0356 7.8693 12.9353 8.8872 12.5522 9.81225C12.169 10.7373 11.5201 11.528 10.6876 12.0842C9.85509 12.6405 8.87631 12.9374 7.87504 12.9374C6.53284 12.9359 5.24603 12.4021 4.29695 11.453C3.34787 10.5039 2.81403 9.21712 2.81254 7.87492Z" fill="#BEC6CF"/>
</svg>
