<svg width="95" height="418" viewBox="0 0 95 418" fill="none" xmlns="http://www.w3.org/2000/svg">
<path d="M27.7495 414.893L27.7495 409.602L45.4067 398.774L27.7495 387.854L27.7495 382.624L49.6826 396.098L73 381.732L73 387.023L54.02 398.774L73 410.586L73 415.877L49.6826 401.45L27.7495 414.893ZM73 338.542L73 343.249L38.3315 343.249L73 373.057L73 374.072L27.7495 374.072L27.7495 369.55L63.0332 369.55L27.7495 339.558L27.7495 338.542L73 338.542ZM32.1484 331.959L27.7495 331.959L27.7495 307.135L32.1484 307.135L32.1484 317.225L73 317.225L73 321.839L32.1484 321.839L32.1484 331.959ZM27.7495 283.233L27.7495 251.118L73 251.118L73 255.67L32.0561 255.67L32.0561 278.68L73 278.68L73 283.233L27.7495 283.233ZM27.7495 240.136L27.7495 231.123C27.7495 225.955 27.9751 222.468 28.4263 220.664C29.062 218.08 30.3745 215.967 32.3638 214.327C34.3325 212.686 36.814 211.866 39.8081 211.866C42.8227 211.866 45.3144 212.666 47.2832 214.265C49.2314 215.865 50.5439 218.069 51.2207 220.879C51.7129 222.93 51.959 226.765 51.959 232.384L51.959 235.614L73 235.614L73 240.136L27.7495 240.136ZM32.1484 235.614L47.5293 235.614L47.6216 227.954C47.6216 224.857 47.3447 222.591 46.791 221.156C46.2168 219.72 45.3042 218.592 44.0532 217.772C42.7817 216.952 41.3667 216.542 39.8081 216.542C38.2905 216.542 36.9062 216.952 35.6553 217.772C34.3838 218.592 33.4814 219.679 32.9482 221.033C32.415 222.366 32.1484 224.56 32.1484 227.616L32.1484 235.614ZM26.6113 181.258C26.6113 174.408 28.8979 168.676 33.4712 164.062C38.0444 159.448 43.6738 157.141 50.3594 157.141C56.9834 157.141 62.6025 159.448 67.2168 164.062C71.831 168.656 74.1382 174.265 74.1382 180.889C74.1382 187.595 71.8413 193.255 67.2475 197.869C62.6538 202.483 57.0962 204.791 50.5747 204.791C46.227 204.791 42.1973 203.745 38.4853 201.653C34.7734 199.541 31.8716 196.669 29.7798 193.04C27.6675 189.41 26.6113 185.482 26.6113 181.258ZM31.041 181.042C31.041 184.385 31.9126 187.554 33.6558 190.548C35.3989 193.542 37.7471 195.88 40.7002 197.562C43.6533 199.243 46.9448 200.084 50.5747 200.084C55.9477 200.084 60.4902 198.228 64.2021 194.516C67.8935 190.784 69.7392 186.292 69.7392 181.042C69.7392 177.536 68.8882 174.295 67.186 171.322C65.4839 168.328 63.1562 166 60.2031 164.339C57.25 162.657 53.9687 161.816 50.3594 161.816C46.7705 161.816 43.5303 162.657 40.6387 164.339C37.7266 166 35.3989 168.348 33.6558 171.383C31.9126 174.418 31.041 177.638 31.041 181.042ZM79.7676 148.189L79.7676 152.649L68.7856 152.649L68.7856 148.958L27.7495 131.208L27.7495 129.64L68.7856 110.906L68.7856 107.368L79.7676 107.368L79.7676 111.829L73 111.829L73 148.189L79.7676 148.189ZM68.7856 143.852L68.7856 116.258L37.1011 130.409L68.7856 143.852ZM27.7495 82.4512L73 61.3486L73 66.209L58.1113 73.3149L58.1113 92.8179L73 99.8931L73 104.938L27.7495 83.5586L27.7495 82.4512ZM37.3472 83.0049L53.7431 90.7876L53.7431 75.3145L37.3472 83.0049ZM51.9897 28.0952L73 28.0952L73 32.6787L51.9897 32.6787L50.7285 34.063L73 52.5815L73 58.5801L47.9292 36.9853L27.7495 56.8574L27.7495 50.7666L46.8833 32.6787L27.7495 32.6787L27.7495 28.0952L46.8833 28.0952L27.7495 9.97656L27.7495 3.85498L47.9292 23.727L73 2.16308L73 8.16162L50.7285 26.7109L51.9897 28.0952Z" fill="#0A0A0A"/>
<g clip-path="url(#clip0_206_1082)">
<path d="M27.7495 414.893L27.7495 409.602L45.4067 398.774L27.7495 387.854L27.7495 382.624L49.6826 396.098L73 381.732L73 387.023L54.02 398.774L73 410.586L73 415.877L49.6826 401.45L27.7495 414.893ZM73 338.542L73 343.249L38.3315 343.249L73 373.057L73 374.072L27.7495 374.072L27.7495 369.55L63.0332 369.55L27.7495 339.558L27.7495 338.542L73 338.542ZM32.1484 331.959L27.7495 331.959L27.7495 307.135L32.1484 307.135L32.1484 317.225L73 317.225L73 321.839L32.1484 321.839L32.1484 331.959ZM27.7495 283.233L27.7495 251.118L73 251.118L73 255.67L32.0561 255.67L32.0561 278.68L73 278.68L73 283.233L27.7495 283.233ZM27.7495 240.136L27.7495 231.123C27.7495 225.955 27.9751 222.468 28.4263 220.664C29.062 218.08 30.3745 215.967 32.3638 214.327C34.3325 212.686 36.814 211.866 39.8081 211.866C42.8227 211.866 45.3144 212.666 47.2832 214.265C49.2314 215.865 50.5439 218.069 51.2207 220.879C51.7129 222.93 51.959 226.765 51.959 232.384L51.959 235.614L73 235.614L73 240.136L27.7495 240.136ZM32.1484 235.614L47.5293 235.614L47.6216 227.954C47.6216 224.857 47.3447 222.591 46.791 221.156C46.2168 219.72 45.3042 218.592 44.0532 217.772C42.7817 216.952 41.3667 216.542 39.8081 216.542C38.2905 216.542 36.9062 216.952 35.6553 217.772C34.3838 218.592 33.4814 219.679 32.9482 221.033C32.415 222.366 32.1484 224.56 32.1484 227.616L32.1484 235.614ZM26.6113 181.258C26.6113 174.408 28.8979 168.676 33.4712 164.062C38.0444 159.448 43.6738 157.141 50.3594 157.141C56.9834 157.141 62.6025 159.448 67.2168 164.062C71.831 168.656 74.1382 174.265 74.1382 180.889C74.1382 187.595 71.8413 193.255 67.2475 197.869C62.6538 202.483 57.0962 204.791 50.5747 204.791C46.227 204.791 42.1973 203.745 38.4853 201.653C34.7734 199.541 31.8716 196.669 29.7798 193.04C27.6675 189.41 26.6113 185.482 26.6113 181.258ZM31.041 181.042C31.041 184.385 31.9126 187.554 33.6558 190.548C35.3989 193.542 37.7471 195.88 40.7002 197.562C43.6533 199.243 46.9448 200.084 50.5747 200.084C55.9477 200.084 60.4902 198.228 64.2021 194.516C67.8935 190.784 69.7392 186.292 69.7392 181.042C69.7392 177.536 68.8882 174.295 67.186 171.322C65.4839 168.328 63.1562 166 60.2031 164.339C57.25 162.657 53.9687 161.816 50.3594 161.816C46.7705 161.816 43.5303 162.657 40.6387 164.339C37.7266 166 35.3989 168.348 33.6558 171.383C31.9126 174.418 31.041 177.638 31.041 181.042ZM79.7676 148.189L79.7676 152.649L68.7856 152.649L68.7856 148.958L27.7495 131.208L27.7495 129.64L68.7856 110.906L68.7856 107.368L79.7676 107.368L79.7676 111.829L73 111.829L73 148.189L79.7676 148.189ZM68.7856 143.852L68.7856 116.258L37.1011 130.409L68.7856 143.852ZM27.7495 82.4512L73 61.3486L73 66.209L58.1113 73.3149L58.1113 92.8179L73 99.8931L73 104.938L27.7495 83.5586L27.7495 82.4512ZM37.3472 83.0049L53.7431 90.7876L53.7431 75.3145L37.3472 83.0049ZM51.9897 28.0952L73 28.0952L73 32.6787L51.9897 32.6787L50.7285 34.063L73 52.5815L73 58.5801L47.9292 36.9853L27.7495 56.8574L27.7495 50.7666L46.8833 32.6787L27.7495 32.6787L27.7495 28.0952L46.8833 28.0952L27.7495 9.97656L27.7495 3.85498L47.9292 23.727L73 2.16308L73 8.16162L50.7285 26.7109L51.9897 28.0952Z" fill="#FFF500"/>
</g>
<defs>
<clipPath id="clip0_206_1082">
<rect width="83" height="194" fill="white"/>
</clipPath>
</defs>
</svg>
